<svg xmlns="http://www.w3.org/2000/svg" width="160" height="30" viewBox="0 0 160 30" fill="none"><g clip-path="url(#clip0)"><path d="M109.92 7.94625C107.855 7.94625 106.424 8.89969 105.471 10.1709V7.94625H105.312L100.862 9.37687V9.53625C102.451 9.69469 102.769 10.1709 102.769 11.4431V27.6525C102.769 28.9247 102.451 29.2425 101.339 29.4009H100.862V29.7197H107.537V29.4009H107.06C105.947 29.2416 105.629 28.9247 105.629 27.6534V23.3616C106.584 23.6803 107.537 23.6803 108.491 23.6803C112.622 23.6803 115.96 20.3428 115.96 15.4153C115.96 10.9659 113.417 7.94625 109.92 7.94625V7.94625ZM108.649 23.2031C107.378 23.2031 106.266 22.7259 105.629 21.7725V10.4887C106.424 9.69469 107.378 9.37687 108.649 9.37687C111.351 9.37687 113.099 11.7609 113.099 16.0519C112.94 20.6606 111.351 23.2031 108.649 23.2031ZM121.523 21.2962V0H121.364L116.755 1.27125V1.59C118.344 1.74844 118.662 2.22469 118.662 3.49594V21.1369C118.662 22.4081 118.344 22.7259 117.232 22.8853H116.755V23.2031H123.43V22.8844H122.953C121.841 22.8844 121.523 22.4081 121.523 21.2962V21.2962ZM127.721 5.72156C128.686 5.72156 129.468 5.00906 129.468 4.1325C129.468 3.25406 128.686 2.5425 127.721 2.5425C126.755 2.5425 125.972 3.255 125.972 4.1325C125.972 5.01 126.755 5.72156 127.721 5.72156ZM129.15 21.2962V7.94625H128.992L124.542 9.2175V9.53625C126.131 9.69469 126.449 10.1709 126.449 11.4431V21.1369C126.449 22.4081 126.131 22.7259 125.019 22.8853H124.542V23.2031H131.057V22.8853H130.581C129.468 22.8853 129.15 22.4081 129.15 21.2962V21.2962ZM139.64 21.2962C136.78 21.2962 134.396 18.9122 134.396 14.6212C134.396 10.4887 136.461 8.58188 138.209 8.58188C139.64 8.58188 140.116 9.05906 140.911 10.8066C141.389 11.7609 141.706 11.9194 142.342 11.9194C142.978 11.9194 143.613 11.6016 143.931 10.9659C143.772 9.69469 142.183 7.94719 138.845 7.94719C135.19 7.94719 132.012 11.2837 132.012 16.0519C132.012 20.5012 134.554 23.6803 138.687 23.6803C141.389 23.6803 143.454 21.9319 144.408 18.7528L144.089 18.5934C142.978 20.5013 141.706 21.2962 139.64 21.2962V21.2962ZM157.917 22.2497C156.962 22.2497 156.644 21.7725 156.644 20.6606V12.0787C156.644 9.69469 155.055 7.94625 151.4 7.94625C148.38 7.94625 146.474 9.69469 145.997 11.2838C146.315 11.7609 146.951 12.0787 147.586 12.0787C148.222 12.0787 148.698 11.76 149.016 10.8066C149.653 8.74125 149.97 8.26406 151.4 8.26406C153.149 8.26406 153.944 9.37687 153.944 12.0787V14.3034L149.97 15.5747C148.38 16.0519 147.268 16.6875 146.633 17.1638C145.997 17.6409 145.679 18.435 145.679 19.5478C145.679 20.6606 145.997 21.6141 146.791 22.4081C147.586 23.2031 148.54 23.5209 149.653 23.5209C151.4 23.5209 152.989 22.5675 154.102 21.1369C154.261 22.4081 154.897 23.3616 156.327 23.3616C157.28 23.3616 158.234 22.8853 159.029 22.0903V21.7725C158.711 22.0913 158.393 22.2497 157.917 22.2497V22.2497ZM153.944 20.8191C153.307 21.6141 152.354 22.0903 151.082 22.0903C149.175 22.0903 148.063 20.5013 148.063 18.7528C148.063 17.3231 148.54 16.6875 150.288 16.2103L153.944 14.9391V20.8191V20.8191ZM58.1113 21.2962V12.3966C58.1113 10.0125 56.8401 7.94625 53.9788 7.94625C51.9135 7.94625 50.1651 9.2175 49.2116 10.6481C48.7344 9.05906 47.4632 7.94625 45.3969 7.94625C43.4901 7.94625 41.7416 9.05906 40.7882 10.4887V7.94625H40.6288L36.1794 9.2175V9.53625C37.7685 9.69469 38.0873 10.1709 38.0873 11.4431V21.1369C38.0873 22.4081 37.7685 22.7259 36.6566 22.8853H36.1794V23.2031H42.8544V22.8853H42.3773C41.2654 22.7259 40.9476 22.4081 40.9476 21.1369V10.8066C41.7416 9.85313 42.8544 9.2175 44.1257 9.2175C45.8741 9.2175 46.9869 10.4888 46.9869 12.555V21.1369C46.9869 22.2497 46.6682 22.7259 45.5563 22.8853H44.9207V23.2031H51.5957V22.8853H50.9601C49.8473 22.7259 49.5294 22.4081 49.5294 21.1369V12.3966C49.5294 11.9194 49.5294 11.4422 49.3701 11.1244C50.1651 10.0125 51.2779 9.37687 52.7076 9.37687C54.456 9.37687 55.5688 10.6481 55.5688 12.7144V21.2962C55.5688 22.4081 55.2501 22.8853 54.1382 23.0437H53.661V23.3625H60.336V23.0437H59.8598C58.4291 22.8853 58.1113 22.4081 58.1113 21.2962V21.2962ZM73.8454 20.025V7.94625H73.686L69.0773 8.89969V9.21844C70.5079 9.37688 70.9841 9.85312 70.9841 10.9659V20.8191C70.1901 21.7725 69.0773 22.4081 67.806 22.4081C65.7398 22.4081 64.7863 21.1369 64.7863 18.7528V7.94625H64.6269L60.1776 8.89969V9.21844C61.6082 9.37688 62.0844 9.85312 62.0844 10.9659V18.9122C62.0844 21.9309 63.5151 23.6803 66.5348 23.6803C67.4765 23.677 68.4032 23.4436 69.234 23.0003C70.0649 22.557 70.7748 21.9173 71.3019 21.1369C71.4613 22.2497 71.6207 23.0447 71.9376 23.5209L75.7523 22.7259V22.4081C74.3216 22.2488 73.8454 21.7725 73.8454 20.025V20.025ZM81.4729 21.2962V0H81.3135L76.8641 1.27125V1.59C78.4532 1.74844 78.771 2.22469 78.771 3.49594V21.1369C78.771 22.4081 78.4532 22.7259 77.3413 22.8853H76.8641V23.2031H83.3798V22.8844H82.9035C81.7907 22.8844 81.4729 22.4081 81.4729 21.2962V21.2962ZM96.2535 5.72156C97.2191 5.72156 98.0019 5.00906 98.0019 4.1325C98.0019 3.25406 97.2191 2.5425 96.2535 2.5425C95.2879 2.5425 94.5051 3.255 94.5051 4.1325C94.5051 5.01 95.2879 5.72156 96.2535 5.72156ZM97.8426 21.2962V7.94625H97.5248L95.9357 8.265H88.7835V4.44937H88.3073C87.5123 6.675 85.9232 8.42344 83.8569 8.89969V9.21844H86.0816V20.1834C86.0816 22.4081 87.3538 23.5209 89.2598 23.5209C90.5319 23.5209 91.8032 22.8853 92.916 21.7725V21.4547C92.2804 21.7734 91.6448 21.9319 91.0091 21.9319C89.4191 21.9319 88.7835 21.1369 88.7835 19.3894V9.2175H93.3923C95.1407 9.2175 95.3001 9.53625 95.3001 10.8066V21.1378C95.3001 22.4081 94.9823 22.7259 93.8694 22.8853H93.3923V23.2031H100.067V22.8844H99.591C98.1604 22.8844 97.8426 22.4081 97.8426 21.2962V21.2962Z" fill="black"></path><path d="M15.6782 1.90687C22.8294 1.90687 28.7094 7.78688 28.7094 14.9381C28.7094 22.0913 22.8294 27.9713 15.6782 27.9713C8.52601 27.9713 2.64695 22.0903 2.64695 14.9391C2.64695 7.78688 8.52601 1.90781 15.6782 1.90781V1.90687ZM15.6782 0C7.41414 0 0.739136 6.675 0.739136 14.9391C0.739136 23.2031 7.41414 29.8781 15.6782 29.8781C23.9423 29.8781 30.6173 23.2031 30.6173 14.9391C30.6173 6.675 23.9423 0 15.6782 0Z" fill="#FF3429"></path></g><defs><clipPath id="clip0"><rect width="158.438" height="30" fill="white" transform="translate(0.739136)"></rect></clipPath></defs></svg>