<?xml version="1.0" encoding="UTF-8"?> <svg xmlns="http://www.w3.org/2000/svg" width="172" height="30" viewBox="0 0 172 30" fill="none"><g clip-path="url(#clip0)"><path fill-rule="evenodd" clip-rule="evenodd" d="M146.548 12.8731C146.548 15.6343 154.71 13.9653 154.71 19.5786C154.71 22.6128 152.07 24.2516 148.793 24.2516C145.759 24.2516 143.575 22.8861 142.604 20.7013L145.426 19.0628C145.911 20.4283 147.125 21.2476 148.793 21.2476C150.25 21.2476 151.373 20.7621 151.373 19.5483C151.373 16.8478 143.21 18.3651 143.21 12.9338C143.21 10.0816 145.668 8.29132 148.763 8.29132C151.251 8.29132 153.315 9.44432 154.376 11.4471L151.615 12.9943C151.069 11.8111 150.007 11.2648 148.763 11.2648C147.58 11.2648 146.548 11.7808 146.548 12.8731ZM46.3296 21.0352C48.1501 21.0352 49.6368 20.0944 50.3651 18.6987L53.1871 20.3069C51.9126 22.7039 49.3336 24.2514 46.3601 24.2514C41.7781 24.2514 38.3496 20.762 38.3496 16.2712C38.3496 11.7505 41.7781 8.2912 46.3601 8.2912C49.3336 8.2912 51.9126 9.83895 53.1263 12.2057L50.3043 13.844C49.6368 12.4177 48.1501 11.5077 46.3296 11.5077C43.6593 11.5077 41.6266 13.5405 41.6266 16.2712C41.6266 19.0022 43.6593 21.0352 46.3296 21.0352ZM15.823 0C24.0747 0 30.764 6.6895 30.764 14.941C30.764 23.1927 24.0747 29.8818 15.823 29.8818C7.57146 29.8818 0.881958 23.1927 0.881958 14.941C0.881958 6.6895 7.57146 0 15.823 0ZM15.813 26.5952C22.2495 26.5952 27.4672 21.3775 27.4672 14.941C27.4672 8.5045 22.2495 3.28675 15.813 3.28675C9.37646 3.28675 4.15871 8.5045 4.15871 14.941C4.15871 21.3775 9.37646 26.5952 15.813 26.5952ZM15.4705 14.3823L21.6473 8.4276L23.1043 9.8846L15.5893 18.7164L10.9993 13.7251L12.4563 12.2678L15.4705 14.3823ZM55.6233 23.857V2.6172H58.9003V23.857H55.6233ZM69.6416 8.29123C74.1018 8.29123 77.6521 11.7505 77.6521 16.2712C77.6521 20.762 74.1018 24.2515 69.6416 24.2515C65.2116 24.2515 61.6313 20.762 61.6313 16.2712C61.6313 11.7505 65.2116 8.29123 69.6416 8.29123ZM69.6416 21.0655C72.3118 21.0655 74.3751 19.0325 74.3751 16.2712C74.3751 13.5102 72.3118 11.4772 69.6416 11.4772C66.9713 11.4772 64.9081 13.5102 64.9081 16.2712C64.9081 19.0325 66.9713 21.0655 69.6416 21.0655ZM87.896 21.0352C89.7165 21.0352 91.2032 20.0944 91.9315 18.6987L94.7535 20.3069C93.479 22.7039 90.9 24.2514 87.9265 24.2514C83.3445 24.2514 79.916 20.762 79.916 16.2712C79.916 11.7505 83.3445 8.2912 87.9265 8.2912C90.9 8.2912 93.479 9.83895 94.6927 12.2057L91.8707 13.844C91.2032 12.4177 89.7165 11.5077 87.896 11.5077C85.2257 11.5077 83.193 13.5405 83.193 16.2712C83.193 19.0022 85.2257 21.0352 87.896 21.0352ZM110.429 8.68583L104.185 15.4143L110.672 23.8571H106.431L101.957 17.8143L100.537 19.3446V23.8571H97.2604V2.61733H100.537V14.8611L106.424 8.68583H110.429ZM127.627 19.1539L130.601 8.68585H134.06L129.296 23.8568H126.08L122.924 13.6316L119.738 23.8568H116.522L111.758 8.68585H115.217L118.16 19.1539L121.346 8.68585H124.471L127.627 19.1539ZM138.289 2.22295C139.442 2.22295 140.382 3.1637 140.382 4.31645C140.382 5.4392 139.442 6.4102 138.289 6.4102C137.136 6.4102 136.195 5.4392 136.195 4.31645C136.195 3.1637 137.136 2.22295 138.289 2.22295ZM136.65 23.857V8.6857H139.927V23.857H136.65ZM171.882 16.2713C171.882 16.6048 171.865 16.9326 171.832 17.2541L159.909 17.2548C160.09 19.4178 161.874 21.2476 164.353 21.2476C166.159 21.2476 167.242 20.5703 167.864 19.4808L171.449 19.4816C170.61 22.4801 167.783 24.2516 164.353 24.2516C159.923 24.2516 156.584 20.7621 156.584 16.2713C156.584 11.7506 159.923 8.29132 164.353 8.29132C168.813 8.29132 171.882 11.7506 171.882 16.2713ZM160.121 14.7066H168.369C168.189 12.8221 166.605 11.2648 164.353 11.2648C162.014 11.2648 160.451 12.9021 160.121 14.7066Z" fill="#204C77"></path></g><defs><clipPath id="clip0"><rect width="171" height="30" fill="white" transform="translate(0.881958)"></rect></clipPath></defs></svg> 