<?xml version="1.0" encoding="UTF-8"?> <svg xmlns="http://www.w3.org/2000/svg" width="102" height="30" viewBox="0 0 102 30" fill="none"><g clip-path="url(#clip0)"><path d="M17.7776 7.21622L19.9363 3.46948C20.2397 2.94344 20.3221 2.3185 20.1652 1.73183C20.0083 1.14517 19.625 0.644718 19.0996 0.340347C18.8394 0.190066 18.5521 0.0925629 18.2543 0.0534163C17.9564 0.0142698 17.6537 0.0342484 17.3635 0.112209C17.0734 0.190169 16.8014 0.324581 16.5633 0.507753C16.3251 0.690925 16.1254 0.919261 15.9756 1.17969L13.8169 4.92513C9.21585 3.47274 4.06564 5.3523 1.55346 9.71013C0.794832 11.0235 0.328938 12.4853 0.187672 13.9954C0.0464055 15.5056 0.233103 17.0284 0.734986 18.4597L4.72172 11.5427C5.16979 10.7601 5.76866 10.074 6.48366 9.52437C7.19866 8.97472 8.01559 8.57235 8.88716 8.34056C9.7571 8.10462 10.6652 8.04383 11.5589 8.16172C12.4525 8.27961 13.3138 8.57383 14.0928 9.0273C17.3687 10.9219 18.495 15.133 16.6037 18.4134C14.7124 21.6951 10.5085 22.8234 7.23325 20.9288L9.51977 16.9616C9.77983 17.1121 10.067 17.2097 10.3649 17.249C10.6627 17.2883 10.9654 17.2684 11.2556 17.1906C11.5457 17.1128 11.8177 16.9785 12.0559 16.7954C12.2941 16.6123 12.4938 16.384 12.6437 16.1236C12.9467 15.5975 13.0287 14.9727 12.8717 14.3863C12.7147 13.7998 12.3316 13.2995 11.8063 12.9951C11.5462 12.8448 11.259 12.7472 10.9612 12.708C10.6634 12.6687 10.3607 12.6886 10.0706 12.7664C9.78042 12.8443 9.50847 12.9786 9.27027 13.1616C9.03207 13.3446 8.83229 13.5728 8.68238 13.8332L1.38846 26.4873C1.08523 27.0133 1.00302 27.6381 1.15989 28.2246C1.31676 28.8111 1.69988 29.3114 2.2252 29.6158C2.48528 29.7663 2.7725 29.8639 3.07039 29.9032C3.36829 29.9425 3.67101 29.9226 3.96121 29.8447C4.25141 29.7668 4.52338 29.6324 4.76154 29.4492C4.99971 29.266 5.19938 29.0376 5.34912 28.7771L7.50846 25.0316C12.1089 26.484 17.2598 24.6045 19.7719 20.246C22.2841 15.8882 21.3339 10.4803 17.7769 7.21556L17.7776 7.21622ZM30.943 14.889C31.965 14.889 32.6159 14.4293 32.6159 13.3167C32.6159 12.1897 31.935 11.7606 30.943 11.7606H29.5356V14.8884H30.943V14.889ZM27.463 9.93513H31.0017C33.06 9.93513 34.7485 10.9584 34.7485 13.3167C34.7485 15.6749 33.0456 16.7145 31.0017 16.7145H29.5363V20.0217H27.4624V9.93513H27.463ZM37.7935 9.93513H44.4567V11.7606H39.8661V14.0732H43.9095V15.853H39.8661V18.1975H44.6648V20.0217H37.7928V9.93513H37.7935ZM48.1532 9.93513H50.2265V18.1975H54.7878V20.0217H48.1532V9.93513ZM65.3948 14.9777C65.3948 13.0949 64.1511 11.6556 62.3152 11.6556C60.478 11.6556 59.235 13.0949 59.235 14.9777C59.235 16.8625 60.478 18.3012 62.3152 18.3012C64.1511 18.3012 65.3948 16.8619 65.3948 14.9777ZM57.1024 14.9777C57.1024 11.9973 59.4124 9.80143 62.3152 9.80143C65.2174 9.80143 67.5261 11.9973 67.5261 14.9777C67.5261 17.9595 65.2174 20.156 62.3152 20.156C59.413 20.156 57.1024 17.9595 57.1024 14.9777ZM72.6332 11.7606H69.7611V9.93448H77.5793V11.7606H74.7072V20.0217H72.6332V11.7606ZM88.0924 14.9777C88.0924 13.0949 86.8487 11.6556 85.0128 11.6556C83.1756 11.6556 81.9319 13.0949 81.9319 14.9777C81.9319 16.8625 83.1756 18.3012 85.0128 18.3012C86.8487 18.3012 88.0924 16.8619 88.0924 14.9777ZM79.7993 14.9777C79.7993 11.9973 82.11 9.80143 85.0128 9.80143C87.915 9.80143 90.225 11.9973 90.225 14.9777C90.225 17.9595 87.915 20.156 85.0128 20.156C82.11 20.156 79.7993 17.9595 79.7993 14.9777V14.9777ZM96.5576 15.3338C96.0548 14.8597 95.3576 13.9545 95.3576 13.9545C95.3576 13.9545 95.5069 15.0671 95.5069 15.7936V20.0223H93.5667V9.84578H93.7735L98.8526 14.623C99.3417 15.0821 100.037 16.001 100.037 16.001C100.037 16.001 99.9045 14.8597 99.9045 14.1632V9.93513H101.844V20.1103H101.638L96.5576 15.3338" fill="black"></path></g><defs><clipPath id="clip0"><rect width="101.739" height="30" fill="white" transform="translate(0.142822)"></rect></clipPath></defs></svg> 