<svg xmlns="http://www.w3.org/2000/svg" width="58" height="30" viewBox="0 0 58 30" fill="none"><g clip-path="url(#clip0)"><path d="M39.2718 11.5144C38.9099 11.2435 38.3405 11.0805 37.7881 11.089C37.188 11.0974 36.6144 11.29 36.2154 11.6086V7.81982H34.3411V20.1756H36.2154V13.7263C36.2154 13.2765 36.5922 12.7812 37.2906 12.7516C37.6018 12.7378 38.0336 12.8733 38.2516 13.2003C38.4844 13.5464 38.4707 14.0067 38.4707 14.5094L38.4686 20.1756H40.3428V14.4385C40.3418 12.7463 40.1216 12.1441 39.2718 11.5144Z" fill="#007AC2"></path><path d="M24.0278 15.7573C24.0278 16.9658 23.9897 17.3066 23.9802 17.4114C23.9146 18.0824 23.6288 18.7925 22.8478 18.7925C22.0678 18.7925 21.7514 18.0337 21.7175 17.3796C21.7154 17.3754 21.6688 16.9658 21.6688 15.7573C21.6688 14.5455 21.7165 14.0417 21.7175 14.0375C21.727 13.3549 22.0805 12.6723 22.8478 12.6723C23.6151 12.6723 23.9696 13.3549 23.9791 14.0301C23.9802 14.0417 24.0278 14.5455 24.0278 15.7573V15.7573ZM25.8407 14.2989C25.5751 11.6573 24.0754 11.0901 22.8446 11.0901C21.1005 11.0901 20.039 12.2003 19.8475 14.2947C19.8305 14.4619 19.8051 14.7698 19.7956 15.7573C19.7893 16.4758 19.8348 17.0643 19.8443 17.2135C19.9628 19.1693 21.0868 20.3747 22.8446 20.3747C24.6035 20.3747 25.7232 19.1491 25.846 17.2135C25.8545 17.0759 25.8947 16.4758 25.8947 15.7573C25.8947 15.4313 25.864 14.5465 25.8407 14.2989V14.2989Z" fill="#007AC2"></path><path d="M43.4701 14.6439C43.4839 14.2354 43.4839 14.1486 43.4923 14.0301C43.5453 13.2903 43.8754 12.6776 44.6343 12.6723C45.5328 12.6659 45.7444 13.5464 45.7762 14.0343C45.7921 14.2904 45.8122 14.4619 45.809 14.6439H43.4701ZM45.7846 17.1204C45.7846 17.1204 45.7878 17.2579 45.7666 17.4252C45.7137 17.8612 45.5423 18.7925 44.63 18.7925C43.8532 18.7925 43.5537 18.0866 43.5019 17.3828C43.4923 17.1828 43.4553 16.9595 43.4574 16.2007H47.6367C47.6367 16.2007 47.6441 15.5784 47.6325 15.2048C47.6261 15.0577 47.6187 14.8132 47.5838 14.2978C47.5266 13.5052 47.2303 12.6395 46.7763 12.0796C46.2514 11.4319 45.5095 11.0901 44.63 11.0901C42.942 11.0901 41.8869 12.1897 41.6794 14.2957C41.6604 14.4841 41.6297 14.7476 41.6297 15.7573C41.6297 16.4758 41.6699 17.077 41.6773 17.2135C41.7906 19.1375 42.9283 20.3747 44.63 20.3747C46.3276 20.3747 47.4652 19.1693 47.5838 17.1204H45.7846V17.1204Z" fill="#007AC2"></path><path d="M13.868 1.51339H44.3263L55.973 15.1413L44.3295 28.5819H13.8659L2.17685 15.0958L13.868 1.51339ZM45.0629 0H13.1325L0.176636 15.0482L13.1336 30H45.0618L57.9711 15.0968L45.0629 0Z" fill="#007AC2"></path><path d="M14.2448 9.4973H15.1317C16.0958 9.4973 16.6186 10.0085 16.6419 10.9218C16.644 10.9885 16.6514 11.0657 16.6514 11.2075C16.6514 11.3737 16.6493 11.433 16.6429 11.4965C16.589 12.0394 16.3508 12.9855 15.2216 12.9855H14.2448V9.4973ZM18.6834 19.4105C18.6834 19.4126 18.4907 16.3774 18.4907 16.3774C18.4071 15.0206 18.0537 14.2206 17.352 13.811C17.8589 13.5062 18.5151 12.7516 18.5077 11.1768C18.4992 8.77765 17.0102 7.93629 15.2576 7.91724H12.3938V20.1757H14.2437L14.2448 14.5677H15.2745C15.8704 14.5677 16.5413 15.0884 16.6429 16.552L16.8355 19.4222C16.8514 19.8286 16.9287 20.1767 16.9287 20.1767H18.7797C18.7786 20.1767 18.6992 19.8381 18.6834 19.4105Z" fill="#007AC2"></path><path d="M31.3154 17.0357C31.308 17.1712 31.2984 17.2929 31.2921 17.3796C31.2392 18.0644 30.9989 18.7925 30.1618 18.7925C29.3808 18.7925 29.0728 18.003 29.0157 17.422C28.9818 17.0685 28.9903 16.7955 28.9829 15.7572C28.9744 14.5455 29.0136 14.2343 29.0305 14.0375C29.0972 13.2713 29.3935 12.6776 30.1618 12.6723C30.9513 12.667 31.2836 13.3549 31.2921 14.0301C31.2921 14.0375 31.309 14.2005 31.3207 14.5592H33.1748C33.1685 14.4354 33.1632 14.3328 33.159 14.2724C32.9484 11.7103 31.3884 11.0901 30.1576 11.0901C28.4135 11.0901 27.3509 12.2003 27.1594 14.2947C27.1425 14.4619 27.1171 14.7698 27.1086 15.7572C27.1001 16.4758 27.1456 17.0643 27.1562 17.2135C27.2758 19.1693 28.3987 20.3704 30.1576 20.3747C31.9789 20.381 32.9843 19.2698 33.159 17.2135C33.1643 17.1383 33.1748 17.0865 33.1695 17.0357H31.3154" fill="#007AC2"></path></g><defs><clipPath id="clip0"><rect width="57.7945" height="30" fill="white" transform="translate(0.176636)"></rect></clipPath></defs></svg>