<svg xmlns="http://www.w3.org/2000/svg" width="100" height="31" viewBox="0 0 100 31" fill="none"><g clip-path="url(#clip0_746_376)"><path d="M37.0547 16.9757H31.7352V7.88717C31.736 7.81742 31.7226 7.74824 31.6957 7.68389C31.6687 7.61953 31.629 7.56136 31.5787 7.51296C31.5303 7.46272 31.472 7.42293 31.4076 7.39602C31.3432 7.36911 31.274 7.35566 31.2042 7.35648C31.1345 7.35571 31.0654 7.3692 31.0011 7.39611C30.9368 7.42301 30.8787 7.46278 30.8303 7.51296C30.7801 7.56135 30.7403 7.61952 30.7134 7.68388C30.6864 7.74823 30.673 7.81742 30.6738 7.88717V17.4518C30.6716 17.5228 30.6844 17.5934 30.7114 17.6591C30.7383 17.7248 30.7789 17.7841 30.8303 17.833C30.8797 17.8815 30.9382 17.9197 31.0024 17.9453C31.0666 17.971 31.1354 17.9836 31.2045 17.9825H37.055C37.1935 17.985 37.3276 17.9338 37.4293 17.8397C37.4786 17.7935 37.5179 17.7376 37.5448 17.6756C37.5717 17.6136 37.5856 17.5467 37.5856 17.4791C37.5856 17.4115 37.5717 17.3446 37.5448 17.2826C37.5179 17.2206 37.4786 17.1648 37.4293 17.1186C37.3277 17.0244 37.1935 16.9732 37.055 16.9757H37.0547Z" fill="#19324D"></path><path d="M44.1224 10.9413C43.577 10.6198 42.9525 10.4573 42.3196 10.4723C41.6691 10.4594 41.028 10.6292 40.4691 10.9623C39.9353 11.2865 39.4997 11.7497 39.2089 12.3024C38.8958 12.9096 38.7393 13.5855 38.7539 14.2686C38.7409 14.953 38.9073 15.6289 39.2366 16.229C39.5485 16.7905 40.0101 17.2545 40.57 17.5693C41.0694 17.8416 41.6217 18.003 42.1892 18.0426C42.7566 18.0823 43.326 17.9992 43.8584 17.799C44.2739 17.6575 44.6609 17.4434 45.0013 17.1664C45.0518 17.1286 45.0923 17.0791 45.1196 17.0223C45.1468 16.9654 45.1599 16.9028 45.1578 16.8398C45.1528 16.7715 45.134 16.7049 45.1025 16.644C45.0709 16.5832 45.0274 16.5294 44.9744 16.4859C44.8816 16.4129 44.7653 16.3765 44.6474 16.3837C44.5228 16.3876 44.4031 16.4332 44.3075 16.5132C44.0708 16.7056 43.7996 16.851 43.5083 16.9417C43.1912 17.0525 42.8578 17.1099 42.5219 17.1115C42.017 17.1216 41.5187 16.9948 41.08 16.7446C40.6666 16.5037 40.3258 16.1558 40.0935 15.7375C39.9014 15.3893 39.7849 15.0045 39.7519 14.6082H45.245C45.3096 14.611 45.3741 14.601 45.4348 14.5788C45.4955 14.5567 45.5513 14.5228 45.5989 14.479C45.6447 14.4341 45.6805 14.3799 45.7039 14.3201C45.7273 14.2603 45.7378 14.1962 45.7347 14.1321C45.7469 13.4776 45.6029 12.8296 45.3146 12.2418C45.0485 11.705 44.6358 11.2546 44.1245 10.9424L44.1224 10.9413ZM40.9592 11.7783C41.3683 11.5282 41.8405 11.4006 42.3199 11.4108C42.7827 11.3985 43.2391 11.5216 43.633 11.765C44.0035 12.0046 44.2984 12.3445 44.4833 12.7452C44.6299 13.058 44.7204 13.3942 44.7507 13.7383H39.7746C39.8164 13.4102 39.911 13.091 40.0547 12.7931C40.2546 12.3763 40.5681 12.0244 40.9592 11.778V11.7783Z" fill="#19324D"></path><path d="M52.5444 10.9691C51.9538 10.6433 51.2903 10.4724 50.6158 10.4724C49.9413 10.4724 49.2778 10.6433 48.6871 10.9691C48.1237 11.292 47.6564 11.7593 47.3335 12.3227C46.9967 12.9151 46.8252 13.587 46.8367 14.2684C46.8263 14.9433 46.9927 15.6093 47.3195 16.2C47.6328 16.7693 48.0954 17.2424 48.6576 17.5685C49.2197 17.8945 49.8601 18.0611 50.5099 18.0504C51.1319 18.061 51.7452 17.9038 52.2854 17.5953C52.7018 17.3531 53.0613 17.0243 53.3398 16.6313V17.4661C53.337 17.5355 53.349 17.6046 53.3748 17.6691C53.4006 17.7335 53.4397 17.7917 53.4896 17.84C53.5951 17.9322 53.7305 17.9831 53.8706 17.9831C54.0108 17.9831 54.1462 17.9322 54.2517 17.84C54.3015 17.7917 54.3407 17.7335 54.3665 17.6691C54.3923 17.6046 54.4042 17.5355 54.4015 17.4661V14.2687C54.4043 13.5868 54.2289 12.916 53.8925 12.3227C53.5706 11.7607 53.1059 11.2937 52.5455 10.9691H52.5444ZM52.0274 16.731C51.712 16.9178 51.3626 17.0398 50.9994 17.0899C50.6363 17.1399 50.2669 17.117 49.9127 17.0224C49.5586 16.9279 49.2269 16.7636 48.937 16.5393C48.6472 16.3149 48.405 16.035 48.2247 15.7159C47.9769 15.2736 47.8502 14.7738 47.8575 14.267C47.8484 13.7577 47.9752 13.2551 48.2247 12.8111C48.4617 12.392 48.8041 12.0421 49.2178 11.7959C49.6455 11.5509 50.1298 11.422 50.6226 11.422C51.1155 11.422 51.5997 11.5509 52.0274 11.7959C52.4374 12.0426 52.7753 12.3927 53.0076 12.8111C53.2527 13.2566 53.377 13.7585 53.3681 14.267C53.3753 14.773 53.251 15.2722 53.0076 15.7159C52.778 16.1361 52.4394 16.4868 52.0274 16.731Z" fill="#19324D"></path><path d="M60.7687 10.6365C60.4649 10.5033 60.1342 10.4426 59.8029 10.4594C59.2987 10.4537 58.8025 10.5855 58.3676 10.8406C58.0168 11.0488 57.7133 11.3277 57.4764 11.6597V11.0566C57.48 10.9864 57.4694 10.9163 57.445 10.8504C57.4207 10.7845 57.3832 10.7242 57.3348 10.6732C57.2864 10.6223 57.2282 10.5817 57.1637 10.554C57.0991 10.5262 57.0296 10.5119 56.9593 10.5119C56.8891 10.5119 56.8195 10.5262 56.755 10.554C56.6904 10.5817 56.6322 10.6223 56.5838 10.6732C56.5355 10.7242 56.498 10.7845 56.4736 10.8504C56.4493 10.9163 56.4386 10.9864 56.4423 11.0566V17.4655C56.4386 17.5356 56.4493 17.6058 56.4736 17.6717C56.498 17.7376 56.5355 17.7979 56.5838 17.8488C56.6322 17.8998 56.6904 17.9404 56.755 17.9681C56.8195 17.9958 56.8891 18.0101 56.9593 18.0101C57.0296 18.0101 57.0991 17.9958 57.1637 17.9681C57.2282 17.9404 57.2864 17.8998 57.3348 17.8488C57.3832 17.7979 57.4207 17.7376 57.445 17.6717C57.4694 17.6058 57.48 17.5356 57.4764 17.4655V13.3974C57.4666 13.0017 57.5886 12.6139 57.8233 12.2951C58.0634 11.9803 58.3895 11.7417 58.7621 11.6079C59.1956 11.4537 59.6586 11.4002 60.1158 11.4515C60.2698 11.4606 60.4082 11.4697 60.531 11.4788C60.6383 11.4907 60.7469 11.4719 60.8439 11.4245C60.8919 11.3945 60.9331 11.3548 60.9647 11.3078C60.9964 11.2609 61.0179 11.2079 61.0277 11.1522C61.0573 11.0492 61.0471 10.939 60.9992 10.8432C60.9513 10.7475 60.8691 10.6732 60.769 10.6351L60.7687 10.6365Z" fill="#19324D"></path><path d="M67.9246 10.8602C67.3905 10.5863 66.7971 10.4484 66.197 10.4587C65.6379 10.4512 65.0859 10.5845 64.5917 10.8462C64.2627 11.0225 63.9678 11.2563 63.7211 11.5365V11.0709C63.7248 11 63.714 10.929 63.6894 10.8623C63.6649 10.7957 63.6271 10.7347 63.5783 10.683C63.5289 10.6351 63.4702 10.5977 63.4059 10.5732C63.3415 10.5487 63.2728 10.5376 63.204 10.5406C63.1329 10.5348 63.0613 10.5446 62.9943 10.5692C62.9273 10.5938 62.8665 10.6327 62.816 10.6832C62.7655 10.7337 62.7266 10.7945 62.702 10.8616C62.6774 10.9286 62.6676 11.0001 62.6734 11.0713V17.4658C62.6705 17.5345 62.6816 17.6032 62.7062 17.6674C62.7308 17.7317 62.7682 17.7903 62.8162 17.8396C62.8678 17.8884 62.9288 17.9263 62.9955 17.9508C63.0621 17.9754 63.1331 17.9861 63.204 17.9825C63.273 17.9864 63.3419 17.9757 63.4064 17.9511C63.4709 17.9265 63.5295 17.8885 63.5783 17.8397C63.6271 17.7909 63.6651 17.7323 63.6897 17.6678C63.7143 17.6033 63.725 17.5343 63.7211 17.4654V13.4398C63.7159 13.0752 63.8254 12.7183 64.034 12.4193C64.2507 12.1131 64.5439 11.869 64.8843 11.7115C65.27 11.5386 65.6883 11.4503 66.111 11.4527C66.5337 11.4551 66.951 11.548 67.3347 11.7252C67.6993 11.9043 68.0022 12.1882 68.2046 12.5405C68.4331 12.9662 68.5436 13.4453 68.5246 13.9281V17.4658C68.5231 17.534 68.5356 17.6019 68.5614 17.6651C68.5872 17.7283 68.6256 17.7856 68.6744 17.8333C68.7475 17.9071 68.8409 17.9575 68.9427 17.9781C69.0444 17.9988 69.15 17.9889 69.2462 17.9495C69.3423 17.9102 69.4245 17.8432 69.4826 17.7571C69.5407 17.671 69.5719 17.5696 69.5723 17.4658V13.9267C69.5927 13.2688 69.4402 12.617 69.1302 12.0364C68.8512 11.5354 68.4323 11.1267 67.9246 10.8602Z" fill="#19324D"></path><path d="M75.1631 7.35711C74.6139 7.33928 74.0711 7.47857 73.5983 7.75863C73.1709 8.02745 72.8343 8.41861 72.6322 8.88127C72.4051 9.40931 72.2937 9.97986 72.3056 10.5545V10.8129H71.435C71.3714 10.8098 71.3079 10.8196 71.2482 10.8418C71.1886 10.864 71.1341 10.8981 71.0881 10.9421C71.0449 10.9859 71.0112 11.038 70.989 11.0953C70.9668 11.1526 70.9566 11.2139 70.9589 11.2753C70.9574 11.3346 70.9681 11.3936 70.9903 11.4487C71.0125 11.5037 71.0458 11.5536 71.0881 11.5953C71.1341 11.6392 71.1886 11.6733 71.2482 11.6955C71.3079 11.7177 71.3714 11.7276 71.435 11.7244H72.3056V17.4521C72.3019 17.5236 72.3134 17.595 72.3392 17.6618C72.365 17.7286 72.4046 17.7892 72.4554 17.8396C72.502 17.8856 72.5573 17.9219 72.618 17.9464C72.6788 17.971 72.7438 17.9832 72.8093 17.9824C72.8823 17.9869 72.9555 17.9765 73.0244 17.952C73.0934 17.9274 73.1566 17.8892 73.2105 17.8396C73.2592 17.788 73.297 17.7271 73.3216 17.6605C73.3461 17.5939 73.3569 17.523 73.3533 17.4521V11.7241H74.9859C75.0495 11.7271 75.113 11.7173 75.1726 11.6951C75.2323 11.6729 75.2868 11.6388 75.3329 11.5949C75.375 11.5532 75.4083 11.5033 75.4305 11.4483C75.4527 11.3933 75.4634 11.3343 75.462 11.275C75.4643 11.2136 75.454 11.1523 75.4318 11.095C75.4095 11.0377 75.3759 10.9856 75.3329 10.9417C75.2868 10.8978 75.2323 10.8637 75.1726 10.8415C75.113 10.8193 75.0495 10.8095 74.9859 10.8125H73.3533V10.4996C73.3464 10.1117 73.4134 9.7261 73.5507 9.3633C73.6679 9.05062 73.8765 8.78045 74.1493 8.58792C74.4506 8.39175 74.8053 8.2939 75.1645 8.30787C75.3042 8.31312 75.4406 8.26435 75.5453 8.1717C75.5936 8.12939 75.632 8.07705 75.6579 8.01833C75.6838 7.95961 75.6965 7.89595 75.6952 7.83179C75.6964 7.76759 75.6837 7.70389 75.6578 7.64512C75.6319 7.58635 75.5936 7.53394 75.5453 7.49153C75.4399 7.39933 75.303 7.3512 75.1631 7.35711V7.35711Z" fill="#19324D"></path><path d="M83.369 11.0008C83.3001 10.9969 83.2311 11.0076 83.1666 11.0322C83.1021 11.0568 83.0436 11.0947 82.9948 11.1435C82.9459 11.1924 82.908 11.2509 82.8834 11.3154C82.8588 11.3799 82.8481 11.4489 82.852 11.5178V15.5435C82.857 15.908 82.7475 16.2649 82.539 16.5639C82.3224 16.87 82.0292 17.1138 81.6888 17.271C81.3122 17.4475 80.9004 17.5359 80.4846 17.5297C80.054 17.5369 79.6277 17.4436 79.2394 17.2574C78.8743 17.0781 78.5711 16.7938 78.3688 16.441C78.1405 16.0153 78.0301 15.5362 78.0492 15.0534V11.5175C78.0507 11.4492 78.0382 11.3814 78.0125 11.3182C77.9868 11.255 77.9484 11.1977 77.8997 11.1499C77.8498 11.1004 77.7902 11.0615 77.7247 11.0358C77.6592 11.0101 77.5892 10.9981 77.5189 11.0004C77.4507 10.9996 77.3831 11.0124 77.32 11.0381C77.2569 11.0638 77.1996 11.1018 77.1514 11.15C77.1032 11.1982 77.0651 11.2555 77.0395 11.3186C77.0138 11.3817 77.001 11.4493 77.0018 11.5175V15.0552C76.9813 15.7131 77.1338 16.3649 77.444 16.9455C77.7222 17.4467 78.1407 17.8559 78.6482 18.1227C79.1822 18.3966 79.7756 18.5345 80.3757 18.5242C80.9349 18.5315 81.4869 18.3981 81.9811 18.1364C82.311 17.96 82.606 17.725 82.8516 17.4429V17.912C82.848 17.9829 82.8588 18.0538 82.8834 18.1204C82.9079 18.187 82.9457 18.2479 82.9945 18.2995C83.0438 18.3475 83.1025 18.385 83.1668 18.4095C83.2312 18.4341 83.2999 18.4452 83.3687 18.4423C83.4384 18.4448 83.508 18.4334 83.5734 18.4089C83.6387 18.3844 83.6986 18.3472 83.7495 18.2995C83.8003 18.249 83.8398 18.1884 83.8656 18.1217C83.8914 18.0549 83.9029 17.9835 83.8994 17.912V11.5178C83.9021 11.4485 83.8901 11.3794 83.8644 11.315C83.8386 11.2506 83.7996 11.1923 83.7499 11.144C83.6989 11.0962 83.6391 11.0591 83.5737 11.0346C83.5084 11.01 83.4388 10.9987 83.369 11.0011V11.0008Z" fill="#19324D"></path><path d="M88.0201 16.9481H87.6798C87.5554 16.9458 87.4339 16.9106 87.3275 16.846C87.2212 16.7814 87.1339 16.6898 87.0745 16.5805C86.9045 16.2929 86.8217 15.9621 86.8365 15.6283V7.87384C86.8394 7.80495 86.8282 7.73618 86.8036 7.67177C86.779 7.60735 86.7415 7.54866 86.6933 7.49928C86.5906 7.40708 86.4574 7.35608 86.3193 7.35608C86.1812 7.35608 86.048 7.40708 85.9453 7.49928C85.8972 7.54863 85.8598 7.60728 85.8352 7.67163C85.8106 7.73598 85.7995 7.80468 85.8024 7.87349V15.6283C85.7939 16.049 85.875 16.4667 86.0405 16.8535C86.1816 17.1861 86.4118 17.4733 86.7056 17.6835C86.9905 17.8828 87.3308 17.9875 87.6784 17.9828H87.8555C88.0153 17.9899 88.1722 17.9392 88.2977 17.84C88.3528 17.7949 88.3968 17.7377 88.4262 17.6729C88.4557 17.6081 88.47 17.5373 88.4678 17.4661C88.474 17.3306 88.4304 17.1975 88.3453 17.0919C88.3054 17.045 88.2554 17.0077 88.1991 16.9828C88.1428 16.9579 88.0816 16.946 88.0201 16.9481V16.9481Z" fill="#19324D"></path><path d="M91.8567 16.9479H91.5164C91.392 16.9457 91.2705 16.9105 91.1641 16.8459C91.0578 16.7813 90.9705 16.6897 90.9112 16.5804C90.7411 16.2928 90.6584 15.962 90.6731 15.6282V7.87373C90.676 7.8049 90.6648 7.7362 90.6402 7.67185C90.6155 7.6075 90.578 7.54886 90.5299 7.49952C90.4272 7.40732 90.294 7.35632 90.1559 7.35632C90.0178 7.35632 89.8846 7.40732 89.7819 7.49952C89.7338 7.54888 89.6964 7.60753 89.6718 7.67188C89.6472 7.73623 89.6361 7.80492 89.639 7.87373V15.6282C89.6305 16.0489 89.7116 16.4666 89.8771 16.8534C90.0182 17.186 90.2484 17.4732 90.5422 17.6834C90.8271 17.8827 91.1674 17.9874 91.515 17.9827H91.6921C91.8519 17.9898 92.0088 17.9391 92.1343 17.8399C92.1894 17.7948 92.2334 17.7376 92.2629 17.6728C92.2924 17.6079 92.3066 17.5372 92.3044 17.466C92.3106 17.3305 92.267 17.1974 92.1819 17.0918C92.1418 17.0448 92.0916 17.0075 92.035 16.9827C91.9784 16.9579 91.917 16.9463 91.8553 16.9486L91.8567 16.9479Z" fill="#19324D"></path><path d="M99.5709 10.5808C99.5133 10.5465 99.4488 10.5255 99.382 10.5195C99.3153 10.5135 99.2481 10.5226 99.1853 10.5461C99.1226 10.5697 99.0659 10.607 99.0196 10.6555C98.9733 10.7039 98.9384 10.7621 98.9177 10.8259L96.3861 16.4068L93.7344 10.8122C93.7097 10.7516 93.6728 10.6967 93.626 10.651C93.5791 10.6054 93.5233 10.5699 93.462 10.5469C93.3345 10.5132 93.1992 10.5254 93.0798 10.5814C92.9604 10.6374 92.8645 10.7336 92.8088 10.8532C92.7866 10.9151 92.7775 10.981 92.7822 11.0466C92.7869 11.1123 92.8053 11.1762 92.8361 11.2344L95.8701 17.52C95.8722 17.5239 95.8743 17.5263 95.8764 17.5302L94.523 20.513C94.4868 20.5709 94.4646 20.6366 94.4584 20.7046C94.4521 20.7727 94.462 20.8412 94.4871 20.9048C94.5123 20.9683 94.552 21.0251 94.6031 21.0704C94.6542 21.1158 94.7153 21.1485 94.7814 21.1659C94.8589 21.1994 94.942 21.2179 95.0264 21.2205C95.1167 21.2161 95.2033 21.1835 95.2741 21.1273C95.3449 21.0711 95.3962 20.9941 95.4209 20.9072L99.8292 11.2204C99.8658 11.1635 99.8882 11.0988 99.8946 11.0315C99.9009 10.9642 99.891 10.8963 99.8657 10.8337C99.8404 10.771 99.8004 10.7153 99.7491 10.6713C99.6978 10.6273 99.6367 10.5963 99.5709 10.5808V10.5808Z" fill="#19324D"></path><path d="M13.8707 1.22904C14.0052 1.09436 14.0807 0.911798 14.0807 0.721456C14.0807 0.531115 14.0052 0.348555 13.8707 0.213872V0.213872C13.8075 0.147487 13.7315 0.0946337 13.6472 0.0585199C13.563 0.022406 13.4723 0.00378418 13.3806 0.00378418C13.289 0.00378418 13.1982 0.022406 13.114 0.0585199C13.0298 0.0946337 12.9537 0.147487 12.8905 0.213872V0.213872C12.756 0.348555 12.6805 0.531115 12.6805 0.721456C12.6805 0.911798 12.756 1.09436 12.8905 1.22904C13.0263 1.34761 13.2004 1.41296 13.3806 1.41296C13.5608 1.41296 13.735 1.34761 13.8707 1.22904V1.22904Z" fill="#19324D"></path><path d="M25.3876 16.7366C25.2512 16.615 25.0731 16.5508 24.8905 16.5573C24.7079 16.5639 24.5348 16.6406 24.4074 16.7716C24.2796 16.902 24.2084 17.0776 24.2094 17.2602C24.2103 17.4428 24.2832 17.6177 24.4124 17.7468C24.5415 17.8759 24.7164 17.9489 24.899 17.9498C25.0816 17.9507 25.2572 17.8796 25.3876 17.7517L25.4226 17.7167C25.4868 17.6512 25.537 17.5733 25.5701 17.4877C25.6033 17.4022 25.6187 17.3108 25.6154 17.2191C25.6121 17.1275 25.5902 17.0374 25.5511 16.9545C25.5119 16.8715 25.4563 16.7974 25.3876 16.7366Z" fill="#19324D"></path><path d="M2.80887 15.7214C2.87207 15.7878 2.9481 15.8407 3.03234 15.8768C3.11658 15.9129 3.20729 15.9315 3.29895 15.9315C3.39061 15.9315 3.48131 15.9129 3.56555 15.8768C3.6498 15.8407 3.72583 15.7878 3.78903 15.7214V15.7214C3.85784 15.6552 3.91276 15.576 3.95058 15.4884C3.98839 15.4007 4.00835 15.3064 4.00928 15.2109C4.01022 15.1155 3.9921 15.0208 3.956 14.9324C3.9199 14.844 3.86653 14.7638 3.79903 14.6963C3.73153 14.6287 3.65124 14.5754 3.56287 14.5393C3.47449 14.5032 3.3798 14.4851 3.28434 14.486C3.18889 14.4869 3.09457 14.5069 3.00692 14.5447C2.91926 14.5825 2.84003 14.6374 2.77386 14.7063L2.73885 14.7413C2.62194 14.8822 2.56396 15.0628 2.577 15.2454C2.59005 15.428 2.67311 15.5986 2.80887 15.7214V15.7214Z" fill="#19324D"></path><path d="M0.778508 20.7623C0.712123 20.8255 0.65927 20.9015 0.623156 20.9858C0.587042 21.07 0.56842 21.1607 0.56842 21.2524C0.56842 21.344 0.587042 21.4347 0.623156 21.519C0.65927 21.6032 0.712123 21.6792 0.778508 21.7424V21.7424C0.841709 21.8088 0.917738 21.8617 1.00198 21.8978C1.08623 21.9339 1.17693 21.9525 1.26859 21.9525C1.36025 21.9525 1.45095 21.9339 1.5352 21.8978C1.61944 21.8617 1.69547 21.8088 1.75867 21.7424C1.89317 21.6078 1.96872 21.4252 1.96872 21.2349C1.96872 21.0445 1.89317 20.862 1.75867 20.7273C1.61856 20.6139 1.44218 20.555 1.26204 20.5614C1.08191 20.5678 0.910171 20.6392 0.778508 20.7623V20.7623Z" fill="#19324D"></path><path d="M14.3608 16.2116C14.0962 15.9423 13.7355 15.7892 13.358 15.7859C12.9805 15.7827 12.6172 15.9295 12.348 16.1941C12.0787 16.4587 11.9256 16.8194 11.9224 17.1969C11.9191 17.5743 12.0659 17.9377 12.3305 18.2069L12.3655 18.2419C12.6366 18.4969 12.9968 18.6355 13.3689 18.6282C13.7409 18.6209 14.0954 18.4682 14.3562 18.2027C14.6171 17.9373 14.7637 17.5802 14.7645 17.2081C14.7654 16.8359 14.6205 16.4782 14.3608 16.2116V16.2116Z" fill="#19324D"></path><path d="M16.1811 23.9478C16.0842 24.0517 16.0202 24.182 15.9973 24.3222C15.9744 24.4624 15.9936 24.6063 16.0524 24.7356C16.1113 24.8649 16.2072 24.9738 16.328 25.0487C16.4487 25.1235 16.589 25.1608 16.731 25.1559C16.873 25.151 17.0103 25.1041 17.1257 25.0211C17.241 24.9382 17.3292 24.8229 17.379 24.6898C17.4288 24.5568 17.438 24.4119 17.4055 24.2736C17.373 24.1353 17.3002 24.0098 17.1963 23.9128C17.0535 23.7904 16.8699 23.726 16.6819 23.7325C16.4939 23.739 16.3152 23.8158 16.1811 23.9478V23.9478Z" fill="#19324D"></path><path d="M14.8859 26.8183C14.8171 26.8844 14.7622 26.9637 14.7243 27.0513C14.6865 27.139 14.6666 27.2333 14.6656 27.3288C14.6647 27.4242 14.6828 27.5189 14.7189 27.6073C14.755 27.6957 14.8084 27.7759 14.8759 27.8434C14.9434 27.9109 15.0237 27.9643 15.112 28.0004C15.2004 28.0365 15.2951 28.0546 15.3906 28.0537C15.486 28.0528 15.5803 28.0328 15.668 27.995C15.7556 27.9572 15.8349 27.9023 15.901 27.8334C15.9674 27.7702 16.0203 27.6942 16.0564 27.61C16.0925 27.5257 16.1111 27.435 16.1111 27.3434C16.1111 27.2517 16.0925 27.161 16.0564 27.0768C16.0203 26.9925 15.9674 26.9165 15.901 26.8533C15.8389 26.7808 15.7624 26.722 15.6763 26.6807C15.5903 26.6393 15.4966 26.6162 15.4011 26.613C15.3057 26.6097 15.2107 26.6262 15.122 26.6616C15.0333 26.6969 14.9529 26.7503 14.8859 26.8183V26.8183Z" fill="#19324D"></path><path d="M8.86487 28.7786C8.72587 28.9087 8.64414 29.0887 8.63757 29.279C8.63101 29.4693 8.70016 29.6544 8.82986 29.7938C8.89306 29.8602 8.96909 29.913 9.05334 29.9491C9.13758 29.9852 9.22828 30.0039 9.31994 30.0039C9.4116 30.0039 9.5023 29.9852 9.58655 29.9491C9.67079 29.913 9.74682 29.8602 9.81002 29.7938C9.941 29.6664 10.0177 29.4933 10.0243 29.3107C10.0308 29.1281 9.96658 28.95 9.84503 28.8136C9.71358 28.6901 9.54178 28.6185 9.36152 28.612C9.18126 28.6056 9.00479 28.6648 8.86487 28.7786V28.7786Z" fill="#19324D"></path><path d="M23.2172 16.6316H15.796C15.6289 16.6316 15.4686 16.698 15.3504 16.8161C15.2323 16.9343 15.1659 17.0946 15.1659 17.2617C15.1659 17.4288 15.2323 17.5891 15.3504 17.7072C15.4686 17.8254 15.6289 17.8918 15.796 17.8918H23.1822C23.2651 17.8921 23.3471 17.8761 23.4237 17.8445C23.5003 17.8129 23.5699 17.7665 23.6285 17.708C23.6871 17.6494 23.7335 17.5798 23.765 17.5032C23.7966 17.4266 23.8127 17.3445 23.8123 17.2617C23.8148 17.0998 23.754 16.9434 23.6429 16.8257C23.5317 16.708 23.379 16.6383 23.2172 16.6316Z" fill="#19324D"></path><path d="M13.3806 1.85915C13.2978 1.85883 13.2157 1.87491 13.1391 1.90646C13.0625 1.93801 12.9929 1.98441 12.9343 2.04299C12.8757 2.10156 12.8293 2.17115 12.7978 2.24775C12.7662 2.32434 12.7502 2.40642 12.7505 2.48926V14.7063C12.7502 14.7891 12.7662 14.8712 12.7978 14.9478C12.8293 15.0244 12.8757 15.094 12.9343 15.1526C12.9929 15.2111 13.0625 15.2575 13.1391 15.2891C13.2157 15.3206 13.2978 15.3367 13.3806 15.3364C13.4616 15.336 13.5418 15.3192 13.6161 15.287C13.6904 15.2547 13.7575 15.2077 13.8131 15.1488C13.8688 15.0899 13.9119 15.0203 13.9398 14.9442C13.9678 14.8682 13.98 14.7872 13.9757 14.7063V2.45425C13.9764 2.37591 13.9615 2.29821 13.9318 2.22569C13.9022 2.15318 13.8584 2.08729 13.803 2.03189C13.7476 1.97649 13.6817 1.93269 13.6092 1.90303C13.5366 1.87337 13.4589 1.85845 13.3806 1.85915V1.85915Z" fill="#19324D"></path><path d="M4.76915 15.7914L11.1752 17.0866H11.2102C11.2668 17.0786 11.3199 17.0545 11.3634 17.0173C11.4068 16.9801 11.4386 16.9313 11.4553 16.8766C11.4679 16.8071 11.453 16.7354 11.4138 16.6767C11.3747 16.6179 11.3142 16.5766 11.2452 16.5615L4.80416 15.2663C4.66413 15.2313 4.55911 15.3363 4.52411 15.4763C4.55911 15.5814 4.62913 15.7564 4.76915 15.7914Z" fill="#19324D"></path><path d="M11.4903 18.1719C11.553 18.1425 11.6018 18.0899 11.6264 18.0252C11.651 17.9606 11.6496 17.8889 11.6223 17.8252C11.595 17.7616 11.5441 17.7111 11.4803 17.6843C11.4165 17.6576 11.3448 17.6567 11.2803 17.6818L2.59882 20.5873C2.54809 20.6053 2.50411 20.6385 2.47281 20.6823C2.44151 20.7261 2.4244 20.7785 2.42379 20.8323C2.42107 20.9015 2.44496 20.969 2.49054 21.0211C2.53611 21.0732 2.59992 21.1059 2.66883 21.1124H2.73885L11.4903 18.1719Z" fill="#19324D"></path><path d="M12.7856 19.1519C12.7159 19.1318 12.6412 19.1387 12.5764 19.1711C12.5115 19.2035 12.4612 19.2592 12.4355 19.327L9.56503 27.7984C9.54885 27.868 9.55749 27.941 9.58944 28.005C9.6214 28.0689 9.67467 28.1196 9.74006 28.1484H9.81008C9.86846 28.1484 9.92566 28.132 9.97516 28.101C10.0247 28.0701 10.0645 28.0259 10.0901 27.9734L12.9606 19.502C12.9727 19.4675 12.9777 19.431 12.9754 19.3946C12.973 19.3582 12.9634 19.3226 12.9471 19.2899C12.9308 19.2573 12.9081 19.2283 12.8803 19.2046C12.8526 19.1809 12.8204 19.163 12.7856 19.1519V19.1519Z" fill="#19324D"></path><path d="M15.0609 26.1882H15.0959C15.1649 26.1731 15.2253 26.1318 15.2645 26.073C15.3037 26.0143 15.3185 25.9426 15.3059 25.8731L14.0457 19.327V19.292C14.0365 19.2598 14.0211 19.2298 14.0003 19.2036C13.9795 19.1774 13.9537 19.1555 13.9244 19.1392C13.8952 19.123 13.863 19.1127 13.8298 19.1088C13.7965 19.105 13.7629 19.1078 13.7307 19.117C13.6985 19.1262 13.6684 19.1416 13.6422 19.1624C13.616 19.1832 13.5942 19.209 13.5779 19.2383C13.5617 19.2675 13.5513 19.2997 13.5475 19.3329C13.5437 19.3662 13.5464 19.3999 13.5556 19.432L14.8159 25.9781C14.8325 26.0328 14.8644 26.0817 14.9078 26.1189C14.9512 26.1561 15.0043 26.1801 15.0609 26.1882V26.1882Z" fill="#19324D"></path><path d="M14.5709 18.872C14.5031 18.8977 14.4474 18.948 14.415 19.0128C14.3826 19.0777 14.3757 19.1524 14.3958 19.222L15.8661 23.1427C15.8841 23.1934 15.9173 23.2374 15.9611 23.2687C16.0049 23.3 16.0573 23.3171 16.1111 23.3177H16.2161C16.2493 23.3051 16.2795 23.2858 16.3048 23.261C16.33 23.2362 16.3499 23.2064 16.3631 23.1734C16.3762 23.1405 16.3824 23.1052 16.3812 23.0698C16.38 23.0344 16.3715 22.9996 16.3562 22.9676L14.9209 19.012C14.9099 18.9777 14.8914 18.9463 14.8668 18.92C14.8422 18.8937 14.8122 18.8732 14.7788 18.8598C14.7453 18.8464 14.7094 18.8406 14.6735 18.8427C14.6375 18.8448 14.6025 18.8548 14.5709 18.872V18.872Z" fill="#19324D"></path></g><defs><clipPath id="clip0_746_376"><rect width="99.328" height="30" fill="white" transform="translate(0.568481 0.00378418)"></rect></clipPath></defs></svg>