<svg xmlns="http://www.w3.org/2000/svg" width="105" height="31" viewBox="0 0 105 31" fill="none"><path d="M9.37846 20.7817L6.70294 28.296H5.50749L2.83197 20.7817H3.74279L6.13368 27.6698H6.1906L8.52457 20.7817H9.37846Z" fill="black"></path><path d="M17.2343 24.0834H21.0483V24.7666H17.2343V27.5559H21.2191V28.296H16.3804V20.7817H21.2191V21.5218H17.2343V24.0834Z" fill="black"></path><path d="M35.3936 28.296H33.9705L29.7579 21.4649V28.296H28.9041V20.7817H30.3272L34.5397 27.6698V20.7817H35.3936V28.296Z" fill="black"></path><path d="M46.0388 28.296H45.1849V21.5218H42.7371V20.7817H48.4866V21.5218H46.0388V28.296Z" fill="black"></path><path d="M61.8073 20.7817V26.1897C61.8073 28.1821 60.6118 28.3529 58.8471 28.3529C57.1963 28.3529 55.887 28.296 55.887 26.1897V20.7817H56.7409V26.1897C56.7409 27.4421 57.0255 27.6129 58.8471 27.6129C60.3841 27.6129 60.9534 27.6129 60.9534 26.1897V20.7817H61.8073Z" fill="black"></path><path d="M70.7446 28.296H69.8907V20.7817H73.3632C75.0141 20.7817 75.6972 21.2371 75.6972 22.9449C75.6972 24.0265 75.5834 24.7666 74.3879 24.9373C75.2418 24.9943 75.5833 25.5066 75.5833 26.3036V28.296H74.7295V26.702C74.7295 25.7343 74.5018 25.2789 73.4771 25.2789H70.7446V28.296ZM73.3632 24.5389C74.6725 24.4819 74.8433 24.0834 74.8433 22.8311C74.8433 21.8633 74.7295 21.5218 73.3632 21.5218H70.7446V24.5389H73.3632Z" fill="black"></path><path d="M84.1223 24.0834H87.9364V24.7666H84.1223V27.5559H88.1071V28.296H83.2684V20.7817H88.1071V21.5218H84.1223V24.0834Z" fill="black"></path><path d="M95.4506 22.888C95.4506 20.8956 96.3614 20.7249 98.2399 20.7249C99.8908 20.7249 101.029 20.7818 100.972 22.8311H100.118C100.062 21.5218 99.8339 21.4649 98.2399 21.4649C96.5891 21.4649 96.3614 21.6926 96.3614 22.7173C96.3614 24.1404 97.0445 24.0266 98.4676 24.0835C100.232 24.1973 101.143 24.1404 101.143 26.1897C101.143 28.296 100.118 28.4099 98.2399 28.4099C96.3044 28.4099 95.3367 28.1822 95.5075 26.019H96.3614C96.3614 27.6698 96.646 27.6698 98.2399 27.6698C99.8339 27.6698 100.289 27.6698 100.289 26.1897C100.289 24.7666 99.6631 24.9943 98.2969 24.8804C96.7029 24.7097 95.4506 24.8804 95.4506 22.888Z" fill="black"></path><path d="M17.8008 2H3V17.8824H7.72486V13.6698H15.6376C17.2315 13.6698 17.8008 14.2391 17.8008 16.0038V17.8824H22.4687V15.1499C22.4687 12.7021 21.444 11.962 19.8501 11.6774H19.7362H19.8501C22.1271 11.1651 22.5256 9.91271 22.5256 7.80645V6.66793C22.5256 4.33397 21.9564 2 17.8008 2ZM17.9715 8.09108C17.9715 9.40038 17.3454 9.91271 15.9791 9.91271H7.72486V5.75712H15.5806C17.1746 5.75712 17.9715 6.04175 17.9715 7.57875V8.09108Z" fill="black"></path><path d="M31.0673 2.10999H26.3424V17.9923H31.0673V2.10999Z" fill="black"></path><path d="M49.9098 2.0531H35.109V17.9924H49.9098C54.6916 17.9924 56.4563 16.5123 56.4563 12.4706V7.57492C56.4563 3.5901 54.6916 2.0531 49.9098 2.0531ZM51.7883 11.1043C51.7883 13.3244 50.9914 14.1214 48.7143 14.1214H39.8339V5.92407H48.7143C50.9914 5.92407 51.7883 6.66411 51.7883 8.94115V11.1043Z" fill="black"></path><path d="M80.0806 7.11947C80.0806 3.76084 79.1128 1.93921 73.8187 1.93921H66.3614C60.5549 1.93921 59.3595 4.21625 59.3595 7.68873V12.5274C59.3595 17.2523 62.1489 18.277 66.3614 18.277H72.3386C77.8035 18.277 80.1944 18.1062 80.1944 13.5521V9.05496H71.1432L69.3215 12.1859H75.4696V12.7551C75.4696 14.406 74.1033 14.6337 72.794 14.6337H67.4999C64.8813 14.6337 64.2551 13.9506 64.2551 11.1612V9.16881C64.2551 6.37944 64.8813 5.69632 67.4999 5.69632H72.851C74.2172 5.69632 75.3557 5.81018 75.4696 7.34718H80.0806V7.11947Z" fill="black"></path><path d="M100.802 5.6394V2.10999H83.3822V17.9923H100.802V14.3491H88.1071V12.0151H93.9135L95.6782 8.88418H88.1071V5.6394H100.802Z" fill="black"></path></svg>