<svg xmlns="http://www.w3.org/2000/svg" viewBox="0 0 135 135"><defs><style>.cls-1{isolation:isolate;}.cls-2{fill:#fff;}.cls-3{fill:#2c50ff;mix-blend-mode:multiply;}.cls-4{fill:#bbcaff;}</style></defs><g class="cls-1"><g id="Layer_1" data-name="Layer 1"><path class="cls-2" d="M5.35,114.78v-45a7.77,7.77,0,0,1,7.82-7.7H73.43L90.28,45.6v69.18a7.77,7.77,0,0,1-7.82,7.7H13.18a7.77,7.77,0,0,1-7.83-7.7Z"></path><path class="cls-2" d="M82.46,125.17H13.18A10.46,10.46,0,0,1,2.7,114.78v-45a10.46,10.46,0,0,1,10.52-10.4H72.28l16.14-15.7A2.7,2.7,0,0,1,93,45.61v69.17A10.48,10.48,0,0,1,82.46,125.17ZM13.18,64.77a5.07,5.07,0,0,0-5.1,5v45a5.07,5.07,0,0,0,5.1,5H82.46a5.06,5.06,0,0,0,5.12-5h0V52L75.27,64a2.74,2.74,0,0,1-1.9.76Z"></path><path class="cls-3" d="M90.31,40.17a2.7,2.7,0,0,0-3.83,0l-15.94,16H12.06A10.51,10.51,0,0,0,1.62,66.69V112.5A10.49,10.49,0,0,0,12.06,123H80.65A10.5,10.5,0,0,0,91.11,112.5V42.08A2.7,2.7,0,0,0,90.31,40.17Z"></path><circle class="cls-2" cx="26.72" cy="91.05" r="4.93"></circle><circle class="cls-2" cx="46.82" cy="91.05" r="4.93"></circle><circle class="cls-2" cx="66.92" cy="91.05" r="4.93"></circle><path class="cls-4" d="M122,47.53a2.49,2.49,0,0,1-2.5-2.48V27.28a17.14,17.14,0,0,0-17.12-17.11H75.9l-15.84.29A12.49,12.49,0,0,0,47.88,23V49.23a2.5,2.5,0,0,1-5,0V23a17.45,17.45,0,0,1,17-17.54l15.91-.29h26.6a22.14,22.14,0,0,1,22.12,22.11V45a2.5,2.5,0,0,1-2.48,2.5Z"></path><path class="cls-4" d="M114,89.9h-4.74a1.26,1.26,0,0,1,0-2.52H114a7.33,7.33,0,0,0,7.31-7.31V63.23a1.27,1.27,0,0,1,2.53,0V80.07A9.86,9.86,0,0,1,114,89.9Z"></path><rect class="cls-4" x="114.22" y="43.28" width="16.57" height="28.71" rx="4.45"></rect><path class="cls-4" d="M104.18,79.28H88.43a8.76,8.76,0,0,0,0,17.5h15.75c.22,0,.43,0,.65,0a8.76,8.76,0,0,0-.65-17.5Z"></path></g></g></svg>