<svg xmlns="http://www.w3.org/2000/svg" id="Layer_1" data-name="Layer 1" viewBox="0 0 135 135"><defs><style>.cls-1{fill:#bbcaff;}.cls-2{fill:#fff;}.cls-3{fill:#2c50ff;}</style></defs><path class="cls-1" d="M123.48,55.41h-62A9.56,9.56,0,0,0,51.93,65v41a9.57,9.57,0,0,0,9.55,9.55h50.8l16.4,16.26a2.59,2.59,0,0,0,1.8.74h0A2.53,2.53,0,0,0,133,130V65A9.54,9.54,0,0,0,123.48,55.41Z"></path><path class="cls-2" d="M5.48,101.73V14.58A12.63,12.63,0,0,1,18.1,2H94.42A12.62,12.62,0,0,1,107,14.58V65.05A12.63,12.63,0,0,1,94.42,77.67H29.75ZM18.1,10a4.62,4.62,0,0,0-4.62,4.62h0v68l13-12.86h68a4.62,4.62,0,0,0,4.62-4.62h0V14.58A4.61,4.61,0,0,0,94.48,10H18.1Z"></path><path class="cls-3" d="M90.42-1H14.1A11.63,11.63,0,0,0,2.48,10.58V88.13A3,3,0,0,0,4.33,90.9a3.27,3.27,0,0,0,1.15.23,3,3,0,0,0,2.11-.87L25.34,72.67H90.42A11.63,11.63,0,0,0,102,61.05V10.58A11.62,11.62,0,0,0,90.42-1Z"></path><path class="cls-2" d="M81,30.46H24a3,3,0,1,1,0-6H81a3,3,0,0,1,0,6Z"></path><path class="cls-2" d="M62,49.46H24a3,3,0,1,1,0-6H62a3,3,0,1,1,0,6Z"></path></svg>