<svg xmlns="http://www.w3.org/2000/svg" viewBox="0 0 135 135"><defs><style>.cls-1{isolation:isolate;}.cls-2{fill:#2c50ff;mix-blend-mode:multiply;}.cls-3{fill:#bbcaff;}.cls-4{fill:#fff;}</style></defs><g class="cls-1"><g id="Layer_1" data-name="Layer 1"><path class="cls-2" d="M93.76,66.66,87.31,77.82a6.69,6.69,0,0,1-7.8,3L72.45,78.6A35.41,35.41,0,0,1,64.89,83l-1.63,7.25a6.63,6.63,0,0,1-6.5,5.22H43.89a6.62,6.62,0,0,1-6.5-5.22L35.76,83a35,35,0,0,1-7.56-4.39l-7,2.22a6.69,6.69,0,0,1-7.83-3L7,66.7a6.73,6.73,0,0,1,1.25-8.26l5.46-5a35.46,35.46,0,0,1-.25-4.37,40,40,0,0,1,.24-4.37l-5.43-5a6.72,6.72,0,0,1-1.29-8.24L13.39,20.3a6.71,6.71,0,0,1,7.81-3l7,2.22a35.81,35.81,0,0,1,7.56-4.38l1.63-7.25a6.63,6.63,0,0,1,6.5-5.22H56.76a6.64,6.64,0,0,1,6.5,5.22l1.63,7.25a35.63,35.63,0,0,1,7.56,4.38l7-2.22a6.73,6.73,0,0,1,7.83,3.05l6.41,11.09a6.78,6.78,0,0,1-1.17,8.22l-5.46,5a39.91,39.91,0,0,1,0,8.74l5.43,5h0A6.75,6.75,0,0,1,93.76,66.66Z"></path><path class="cls-3" d="M109.88,126.39l-6.1,4.94a4.07,4.07,0,0,1-5.09,0l-3.53-2.8a21.23,21.23,0,0,1-5.25.84l-2.51,3.77a4,4,0,0,1-4.83,1.55l-7.32-2.8a4,4,0,0,1-2.56-4.39l.66-4.48A21.86,21.86,0,0,1,70,118.88l-4.46-.26a4.09,4.09,0,0,1-3.8-3.42l-1.23-7.7A4.13,4.13,0,0,1,63,103.07l4.19-1.65A22.72,22.72,0,0,1,68,98.88a24,24,0,0,1,1.09-2.43l-2-4a4.1,4.1,0,0,1,1.06-5l6.1-4.94a4.09,4.09,0,0,1,5.1,0l3.49,2.79a21.8,21.8,0,0,1,5.26-.85l2.5-3.76a4,4,0,0,1,4.84-1.56l7.31,2.81a4,4,0,0,1,2.56,4.38l-.65,4.48A21.81,21.81,0,0,1,108,94.94l4.47.26a4.1,4.1,0,0,1,3.79,3.44l1.22,7.71a4.1,4.1,0,0,1-2.45,4.41l-4.2,1.66a24.5,24.5,0,0,1-1.9,5l2,4h0A4.12,4.12,0,0,1,109.88,126.39Z"></path><path class="cls-4" d="M47.43,65.52a2.84,2.84,0,0,1-.66-.07A2.89,2.89,0,0,1,44.6,62l5.8-25.14A2.9,2.9,0,1,1,56.08,38l0,.16-5.8,25.14A2.89,2.89,0,0,1,47.43,65.52Z"></path><path class="cls-4" d="M62.9,61.66A2.9,2.9,0,0,1,61,56.6l7.27-6.55L61,43.51a2.9,2.9,0,1,1,3.88-4.32h0l9.68,8.7A2.92,2.92,0,0,1,74.73,52a2.08,2.08,0,0,1-.21.21l-9.67,8.7a2.88,2.88,0,0,1-1.94.75Z"></path><path class="cls-4" d="M37.76,61.66a2.83,2.83,0,0,1-2-.75l-9.67-8.7a2.9,2.9,0,0,1-.21-4.11l.21-.21,9.67-8.7a2.91,2.91,0,0,1,3.89,4.32l-7.23,6.54L39.7,56.6a2.91,2.91,0,0,1,.21,4.1h0a2.85,2.85,0,0,1-2.15,1Z"></path></g></g></svg>