<svg xmlns="http://www.w3.org/2000/svg" width="524" height="30" viewBox="0 0 524 30" fill="none"><path d="M0 7.98418H3.0936V19.1985H8.72836V22.0159H0V7.98418ZM10.1094 12.5141H13.0373V22.0158H10.1094V12.5141ZM11.601 7.76322C11.9397 7.76322 12.2708 7.86366 12.5524 8.05184C12.834 8.24001 13.0535 8.50747 13.1831 8.8204C13.3128 9.13332 13.3467 9.47765 13.2806 9.80985C13.2145 10.142 13.0514 10.4472 12.8119 10.6867C12.5724 10.9262 12.2673 11.0893 11.9351 11.1554C11.6029 11.2215 11.2585 11.1875 10.9456 11.0579C10.6327 10.9283 10.3652 10.7088 10.1771 10.4272C9.98888 10.1456 9.88845 9.81445 9.88845 9.47575C9.8849 9.24988 9.92678 9.0256 10.0116 8.81622C10.0964 8.60685 10.2224 8.41664 10.3821 8.25691C10.5419 8.09718 10.7321 7.97116 10.9414 7.88636C11.1508 7.80155 11.3751 7.75968 11.601 7.76322V7.76322ZM25.3564 7.98419H28.3395V16.3811L31.6541 12.5141H35.3001L31.4331 16.8783L35.1897 22.0158H31.4884L28.3395 17.3202V22.0159H25.3564L25.3564 7.98419ZM14.6946 12.5141H17.5119V13.7847H17.5672C17.8499 13.2934 18.2622 12.8892 18.7591 12.6164C19.256 12.3436 19.8183 12.2127 20.3846 12.2379C23.3677 12.2379 23.9201 14.2266 23.9201 16.7678V21.9606H20.9923V17.3202C20.9923 16.2154 20.9923 14.7791 19.4455 14.7791C17.8987 14.7791 17.6777 15.9944 17.6777 17.2097V21.9054H14.7498V12.5141L14.6946 12.5141Z" fill="#58595B"></path><path d="M41.4873 16.1601C41.4899 15.92 41.4445 15.6818 41.3538 15.4594C41.2631 15.2371 41.1289 15.0351 40.9591 14.8653C40.7893 14.6955 40.5873 14.5613 40.365 14.4706C40.1426 14.3799 39.9044 14.3345 39.6643 14.3371C39.1477 14.315 38.6422 14.4916 38.2518 14.8307C37.8613 15.1698 37.6156 15.6455 37.5651 16.1601H41.4873ZM43.9732 20.3586C43.486 20.9553 42.8703 21.4342 42.1719 21.7594C41.4736 22.0847 40.7108 22.2479 39.9405 22.2368C37.0126 22.2368 34.6372 20.2481 34.6372 17.2097C34.6372 14.1713 37.0126 12.1826 39.9405 12.1826C42.7027 12.1826 44.4152 14.1714 44.4152 17.2097V18.1488H37.5651C37.6548 18.6666 37.9269 19.1352 38.3323 19.4696C38.7377 19.804 39.2494 19.9822 39.7748 19.9719C40.1928 19.9643 40.6026 19.8547 40.9685 19.6525C41.3344 19.4503 41.6452 19.1617 41.874 18.8118L43.9732 20.3586ZM50.5471 14.779C49.0556 14.779 48.1717 15.7734 48.1717 17.2097C48.1717 18.646 49.0556 19.6404 50.5471 19.6404C52.0387 19.6404 52.9226 18.646 52.9226 17.2097C52.9226 15.7734 52.0387 14.779 50.5471 14.779ZM55.6295 22.0158H52.9226V20.7453H52.8673C52.5233 21.1985 52.0813 21.5681 51.5742 21.8264C51.0672 22.0847 50.5084 22.225 49.9395 22.2368C47.1221 22.2368 45.2438 20.1928 45.2438 17.3202C45.2438 14.6685 46.9011 12.2379 49.608 12.2379C50.8233 12.2379 51.9834 12.5693 52.6464 13.5085H52.7016V7.98417H55.6295V22.0158Z" fill="#58595B"></path><path d="M77.0085 5.05633H60.049C59.6615 5.05172 59.2878 5.19983 59.0087 5.46862C58.7295 5.7374 58.5674 6.10526 58.5574 6.49264V23.5074C58.5674 23.8948 58.7295 24.2626 59.0087 24.5314C59.2878 24.8002 59.6615 24.9483 60.049 24.9437H77.0085C77.396 24.9483 77.7697 24.8002 78.0488 24.5314C78.3279 24.2626 78.49 23.8948 78.5001 23.5074V6.49264C78.49 6.10526 78.3279 5.7374 78.0488 5.46862C77.7697 5.19983 77.396 5.05172 77.0085 5.05633V5.05633Z" fill="#58595B"></path><path d="M61.5405 12.5141H64.4684V22.0158H61.5405V12.5141ZM63.0321 7.81845C63.3708 7.81845 63.7019 7.91889 63.9835 8.10706C64.2651 8.29524 64.4846 8.5627 64.6142 8.87562C64.7439 9.18855 64.7778 9.53288 64.7117 9.86508C64.6456 10.1973 64.4825 10.5024 64.243 10.7419C64.0035 10.9814 63.6984 11.1445 63.3662 11.2106C63.034 11.2767 62.6896 11.2428 62.3767 11.1132C62.0638 10.9835 61.7963 10.764 61.6082 10.4824C61.42 10.2008 61.3195 9.86969 61.3195 9.53098C61.316 9.30511 61.3579 9.08083 61.4427 8.87145C61.5275 8.66208 61.6535 8.47188 61.8132 8.31214C61.973 8.15241 62.1632 8.0264 62.3725 7.94159C62.5819 7.85678 62.8062 7.81491 63.0321 7.81845ZM66.3466 12.5141H69.164V13.7847H69.2193C69.5019 13.2933 69.9143 12.8892 70.4111 12.6164C70.908 12.3436 71.4704 12.2126 72.0366 12.2379C75.0197 12.2379 75.5722 14.2266 75.5722 16.7678V21.9606H72.6443V17.3202C72.6443 16.2154 72.6443 14.779 71.0975 14.779C69.5507 14.779 69.3297 15.9944 69.3297 17.2097V21.9054H66.4019V12.5141H66.3466Z" fill="white"></path><path d="M164.515 9.0078V6.05363H152.19V23.783H164.515V20.8275H155.144V16.3957H164.064V13.4402H155.144V9.0078H164.515Z" fill="#58595B"></path><path d="M173.661 23.783V6.05397H176.616V20.8275H185.14V23.783H173.661Z" fill="#58595B"></path><path d="M187.549 23.783V6.05397H190.505V20.8275H199.029V23.783H187.549Z" fill="#58595B"></path><path d="M170.571 6.05385H167.616V23.7831H170.571V6.05385Z" fill="#58595B"></path><path d="M115.294 10.5589C114.265 11.5862 113.625 12.9385 113.482 14.3851C113.339 15.8318 113.702 17.2833 114.509 18.4924C115.316 19.7014 116.517 20.5932 117.908 21.0157C119.299 21.4382 120.794 21.3653 122.137 20.8094C123.48 20.2535 124.589 19.249 125.274 17.9671C125.96 16.6852 126.18 15.2052 125.897 13.7794C125.613 12.3535 124.844 11.0701 123.721 10.1477C122.597 9.22537 121.188 8.7212 119.734 8.72113C118.91 8.71985 118.093 8.88155 117.331 9.19693C116.569 9.51231 115.877 9.97515 115.294 10.5589V10.5589ZM110.5 15.0003C110.5 13.1739 111.042 11.3885 112.056 9.86989C113.071 8.35125 114.513 7.16761 116.2 6.46863C117.888 5.76965 119.745 5.58674 121.536 5.94301C123.327 6.29929 124.973 7.17877 126.264 8.47021C127.556 9.76166 128.435 11.4071 128.791 13.1984C129.148 14.9897 128.965 16.8465 128.266 18.5338C127.567 20.2212 126.383 21.6635 124.865 22.6782C123.346 23.6929 121.561 24.2345 119.734 24.2345C117.285 24.2342 114.937 23.2613 113.205 21.5296C111.473 19.7979 110.5 17.4493 110.5 15.0003" fill="#58595B"></path><path d="M138.102 13.4405V9.00784H144.054C144.642 9.00856 145.205 9.24238 145.62 9.65795C146.035 10.0735 146.268 10.6368 146.268 11.2242C146.268 11.8115 146.035 12.3749 145.62 12.7904C145.205 13.206 144.642 13.4398 144.054 13.4405L138.102 13.4405ZM145.537 16.176C146.727 15.8204 147.749 15.0485 148.416 14.0015C149.083 12.9545 149.351 11.7024 149.171 10.4739C148.991 9.24552 148.375 8.12289 147.436 7.31129C146.496 6.49969 145.296 6.05333 144.054 6.05383H135.147V23.7831H138.102V16.3964H142.218L146.675 23.7831H150.122L145.537 16.176Z" fill="#58595B"></path><path d="M133.053 7.94045C133.053 8.37068 132.925 8.79127 132.686 9.14902C132.447 9.50677 132.108 9.78561 131.71 9.95028C131.313 10.115 130.875 10.158 130.453 10.0741C130.031 9.9902 129.644 9.78303 129.339 9.4788C129.035 9.17458 128.828 8.78697 128.744 8.365C128.66 7.94303 128.703 7.50565 128.868 7.10818C129.033 6.71071 129.312 6.37099 129.669 6.13201C130.027 5.89302 130.448 5.7655 130.878 5.76556C131.455 5.76579 132.008 5.995 132.415 6.40282C132.823 6.81065 133.053 7.3637 133.053 7.94045" fill="#58595B"></path><path d="M212.202 6.05397H208.611L204.063 12.6361L199.515 6.05397H195.924L202.582 15.6937V23.783H205.538V15.7006L212.202 6.05397Z" fill="#58595B"></path><path d="M294.862 7.53746C294.862 7.92351 294.747 8.3009 294.533 8.6219C294.318 8.94289 294.014 9.19308 293.657 9.34081C293.3 9.48855 292.908 9.52721 292.529 9.45189C292.15 9.37657 291.803 9.19067 291.53 8.91769C291.257 8.6447 291.071 8.2969 290.996 7.91826C290.92 7.53962 290.959 7.14715 291.107 6.79048C291.254 6.43381 291.504 6.12896 291.825 5.91448C292.146 5.7 292.524 5.58552 292.91 5.58552C293.166 5.585 293.42 5.63514 293.658 5.73305C293.895 5.83096 294.11 5.97472 294.291 6.15608C294.473 6.33744 294.616 6.55282 294.714 6.78987C294.812 7.02693 294.862 7.28098 294.862 7.53746V7.53746ZM286.814 11.4713V11.9518C286.814 11.9518 285.883 10.7506 283.901 10.7506C280.628 10.7506 278.075 13.2431 278.075 16.6965C278.075 20.1199 280.598 22.6424 283.901 22.6424C285.913 22.6424 286.814 21.4112 286.814 21.4112V21.9217C286.813 21.9772 286.823 22.0325 286.843 22.0841C286.864 22.1358 286.895 22.1826 286.934 22.222C286.973 22.2613 287.02 22.2922 287.072 22.3128C287.123 22.3335 287.179 22.3434 287.234 22.3421H289.667V11.0509H287.234C287.124 11.0532 287.018 11.0983 286.94 11.1766C286.861 11.255 286.816 11.3606 286.814 11.4713ZM286.814 18.7085C286.535 19.0922 286.17 19.404 285.747 19.6181C285.324 19.8322 284.856 19.9424 284.382 19.9397C282.46 19.9397 280.988 18.7385 280.988 16.6965C280.988 14.6545 282.46 13.4533 284.382 13.4533C284.854 13.4571 285.32 13.5702 285.742 13.7838C286.164 13.9974 286.531 14.3057 286.814 14.6845V18.7085ZM291.469 11.0509H294.351V22.3421H291.469V11.0509ZM334.531 10.7506C332.549 10.7506 331.618 11.9518 331.618 11.9518V5.61556H328.735V22.3421H331.168C331.279 22.3398 331.384 22.2947 331.462 22.2164C331.541 22.138 331.586 22.0324 331.588 21.9217V21.4112C331.953 21.8179 332.404 22.1391 332.907 22.3519C333.411 22.5647 333.955 22.6639 334.501 22.6424C337.774 22.6424 340.327 20.1199 340.327 16.6965C340.327 13.2731 337.774 10.7506 334.531 10.7506ZM334.051 19.9097C333.576 19.916 333.107 19.8073 332.683 19.5929C332.26 19.3785 331.894 19.0648 331.618 18.6785V14.6545C331.911 14.2858 332.28 13.9848 332.699 13.7723C333.119 13.5598 333.58 13.4407 334.051 13.4233C335.972 13.4233 337.444 14.6245 337.444 16.6665C337.444 18.7085 335.972 19.9097 334.051 19.9097V19.9097ZM327.234 15.6455V22.3721H324.351V15.9758C324.351 14.1139 323.75 13.3632 322.129 13.3632C321.683 13.3762 321.244 13.4816 320.841 13.6729C320.438 13.8642 320.079 14.1371 319.786 14.4743V22.3421H316.904V11.0509H319.186C319.297 11.0532 319.402 11.0983 319.481 11.1766C319.559 11.255 319.604 11.3606 319.606 11.4713V11.9518C320.008 11.5528 320.486 11.2403 321.013 11.0337C321.54 10.8271 322.104 10.7307 322.669 10.7506C323.818 10.7113 324.94 11.0961 325.822 11.8317C326.843 12.6725 327.234 13.7536 327.234 15.6455V15.6455ZM309.907 10.7506C307.925 10.7506 306.994 11.9518 306.994 11.9518V5.61556H304.111V22.3421H306.543C306.654 22.3398 306.76 22.2947 306.838 22.2164C306.916 22.138 306.962 22.0324 306.964 21.9217V21.4112C307.329 21.8179 307.779 22.139 308.283 22.3519C308.786 22.5647 309.331 22.6639 309.877 22.6424C313.15 22.6424 315.702 20.1199 315.702 16.6965C315.732 13.2731 313.18 10.7506 309.907 10.7506ZM309.426 19.9097C308.952 19.916 308.482 19.8073 308.059 19.5929C307.635 19.3785 307.27 19.0648 306.994 18.6785V14.6545C307.286 14.2858 307.655 13.9848 308.075 13.7723C308.495 13.5598 308.956 13.4407 309.426 13.4233C311.348 13.4233 312.82 14.6245 312.82 16.6665C312.82 18.7085 311.348 19.9097 309.426 19.9097ZM301.619 10.7506C302.064 10.7364 302.509 10.7869 302.94 10.9008V13.5734C302.94 13.5734 300.537 12.7626 299.036 14.4743V22.3721H296.153V11.0509H298.586C298.696 11.0532 298.802 11.0983 298.88 11.1766C298.959 11.255 299.004 11.3606 299.006 11.4713V11.9518C299.695 11.2369 300.628 10.808 301.619 10.7506V10.7506ZM271.679 21.3211C271.529 20.9607 271.379 20.5703 271.229 20.24C270.988 19.6995 270.748 19.189 270.538 18.7085L270.508 18.6785C268.436 14.174 266.214 9.60951 263.871 5.10506L263.781 4.9249C263.541 4.47445 263.301 3.99397 263.06 3.5135C262.764 2.92342 262.402 2.36925 261.979 1.86186C261.526 1.28274 260.948 0.814195 260.287 0.491642C259.626 0.169089 258.901 0.000971373 258.166 0C257.432 0.00268069 256.709 0.16529 256.045 0.476484C255.381 0.787678 254.793 1.23996 254.322 1.80179C253.91 2.31664 253.548 2.8697 253.241 3.45342C253.001 3.9339 252.76 4.41437 252.52 4.86482L252.43 5.04499C250.118 9.54943 247.865 14.1139 245.793 18.6184L245.763 18.6785C245.553 19.1589 245.313 19.6694 245.073 20.21C244.923 20.5403 244.772 20.9007 244.622 21.291C244.238 22.3263 244.115 23.44 244.262 24.5342C244.423 25.633 244.867 26.6707 245.552 27.545C246.237 28.4192 247.138 29.0997 248.166 29.5192C248.936 29.8423 249.763 30.0058 250.598 29.9996C250.859 29.9946 251.12 29.9745 251.379 29.9396C252.438 29.8048 253.46 29.4576 254.382 28.9186C255.783 28.0839 257.04 27.0294 258.106 25.7955C259.178 27.0226 260.434 28.0761 261.829 28.9186C262.751 29.4576 263.773 29.8048 264.832 29.9396C265.091 29.9745 265.352 29.9946 265.613 29.9996C266.448 30.0087 267.276 29.8451 268.045 29.5192C269.074 29.1008 269.976 28.4206 270.661 27.5461C271.345 26.6717 271.79 25.6334 271.949 24.5342C272.172 23.4596 272.078 22.3435 271.679 21.3211V21.3211ZM258.136 22.8826C256.514 20.8406 255.463 18.9187 255.103 17.2971C254.956 16.6978 254.926 16.0761 255.013 15.4653C255.072 15.0131 255.236 14.5811 255.493 14.2041C255.794 13.7869 256.192 13.4489 256.652 13.2188C257.112 12.9887 257.621 12.8734 258.136 12.8827C258.652 12.8634 259.164 12.9743 259.626 13.2052C260.088 13.4361 260.484 13.7796 260.778 14.2041C261.035 14.5811 261.199 15.0131 261.259 15.4653C261.346 16.076 261.316 16.6979 261.169 17.2971C260.808 18.8887 259.757 20.8106 258.136 22.8826V22.8826ZM270.117 24.294C270.009 25.0676 269.7 25.7992 269.22 26.4158C268.741 27.0324 268.108 27.5122 267.385 27.8075C266.662 28.1017 265.876 28.2051 265.102 28.1078C264.296 28.0073 263.519 27.7415 262.82 27.327C261.739 26.7264 260.658 25.7955 259.397 24.4141C261.379 21.9817 262.58 19.7595 263.03 17.7776C263.226 16.9415 263.276 16.0782 263.181 15.2251C263.069 14.4915 262.792 13.7931 262.37 13.183C261.892 12.5089 261.256 11.9621 260.518 11.5904C259.78 11.2188 258.962 11.0335 258.136 11.0509C257.31 11.0401 256.495 11.2283 255.758 11.5994C255.021 11.9705 254.384 12.5137 253.901 13.183C253.479 13.7931 253.202 14.4915 253.091 15.2251C252.964 16.0771 253.015 16.9463 253.241 17.7776C253.691 19.7595 254.922 22.0118 256.874 24.4442C255.904 25.5997 254.747 26.5843 253.451 27.357C252.752 27.7715 251.975 28.0373 251.169 28.1378C250.395 28.2242 249.612 28.1211 248.886 27.8375C248.163 27.5423 247.53 27.0624 247.051 26.4458C246.571 25.8293 246.262 25.0976 246.154 24.324C246.055 23.5329 246.147 22.7295 246.424 21.9817C246.514 21.6814 246.664 21.3811 246.814 21.0208C247.025 20.5403 247.265 20.0298 247.505 19.5193L247.535 19.4592C249.607 14.9848 251.829 10.4203 254.142 5.97592L254.232 5.79575C254.472 5.34531 254.712 4.86483 254.952 4.41439C255.179 3.94212 255.461 3.49856 255.793 3.09308C256.089 2.74482 256.457 2.46506 256.872 2.27321C257.287 2.08135 257.739 1.98198 258.196 1.98198C258.653 1.98198 259.104 2.08135 259.519 2.27321C259.934 2.46506 260.302 2.74482 260.598 3.09308C260.93 3.49856 261.212 3.94212 261.439 4.41439C261.679 4.86483 261.919 5.34531 262.16 5.79575L262.25 5.97592C264.532 10.4503 266.754 15.0148 268.826 19.4893V19.5193C269.066 19.9998 269.277 20.5403 269.517 21.0208C269.667 21.3811 269.817 21.6814 269.907 21.9817C270.155 22.7259 270.227 23.5174 270.117 24.294V24.294Z" fill="#58595B"></path><path d="M376.264 11.7079C376.611 11.3458 376.996 11.0226 377.413 10.7441C377.812 10.5075 378.27 10.3907 378.733 10.4076C379.565 10.4076 380.156 10.6915 380.509 11.2593C380.889 11.944 381.072 12.7211 381.037 13.5037V19.5527C381.044 19.6675 381.009 19.7808 380.938 19.8714C380.867 19.9619 380.766 20.0235 380.653 20.0444C380.314 20.1294 379.969 20.1817 379.621 20.2007V20.4644H384.521V20.2484C384.377 20.2329 384.22 20.2128 384.052 20.188C383.894 20.1663 383.738 20.1344 383.584 20.0924C383.45 20.057 383.324 19.9959 383.213 19.9127C383.165 19.8807 383.127 19.8379 383.1 19.7877C383.072 19.7376 383.058 19.6817 383.057 19.6247V12.568C383.098 11.6236 382.837 10.6907 382.313 9.90435C382.071 9.56708 381.749 9.29583 381.376 9.11554C381.003 8.93524 380.59 8.85168 380.176 8.87254C379.747 8.87179 379.323 8.95743 378.928 9.12435C378.535 9.28849 378.164 9.5022 377.825 9.76028C377.494 10.0106 377.192 10.2962 376.924 10.612C376.686 10.8897 376.466 11.1823 376.265 11.488" fill="#58595B"></path><path d="M375.663 12.1502V19.6002C375.68 19.7311 375.739 19.8531 375.83 19.9481C375.913 20.0218 376.012 20.0753 376.118 20.1044C376.244 20.1385 376.373 20.1588 376.502 20.1648C376.656 20.1736 376.808 20.1935 376.958 20.2245V20.4644H372.327V20.2245C372.652 20.202 372.972 20.1292 373.275 20.0087C373.391 19.9712 373.492 19.8973 373.564 19.7979C373.635 19.6985 373.673 19.5788 373.671 19.4565V11.2001C373.675 11.1028 373.663 11.0055 373.634 10.9124C373.588 10.8229 373.517 10.748 373.431 10.6959C373.287 10.6157 373.119 10.5238 372.927 10.4201C372.74 10.3183 372.547 10.2261 372.351 10.1438V9.99996L375.495 8.87255H375.658L375.663 12.1502Z" fill="#58595B"></path><path d="M433.223 11.7078C433.57 11.3459 433.955 11.0227 434.372 10.7439C434.77 10.5074 435.228 10.3906 435.691 10.4075C436.524 10.4075 437.116 10.6914 437.468 11.2592C437.849 11.9439 438.031 12.721 437.996 13.5036V19.5526C438.002 19.6673 437.967 19.7805 437.897 19.8711C437.826 19.9616 437.724 20.0232 437.612 20.0442C437.273 20.1292 436.928 20.1815 436.579 20.2005V20.4643H441.479V20.2483C441.336 20.2328 441.179 20.2129 441.011 20.1879C440.853 20.1662 440.697 20.1343 440.543 20.0923C440.409 20.0567 440.283 19.9957 440.171 19.9126C440.124 19.8806 440.085 19.8377 440.058 19.7876C440.031 19.7374 440.017 19.6815 440.016 19.6245V12.5679C440.057 11.6235 439.796 10.6906 439.272 9.90422C439.031 9.56698 438.709 9.29576 438.335 9.11546C437.962 8.93517 437.549 8.85159 437.135 8.8724C436.706 8.87169 436.282 8.95733 435.887 9.12423C435.493 9.28849 435.123 9.50218 434.783 9.76014C434.453 10.0105 434.151 10.2961 433.883 10.6119C433.645 10.8898 433.425 11.1824 433.223 11.4878" fill="#58595B"></path><path d="M432.621 12.15V19.6C432.638 19.7311 432.698 19.8531 432.79 19.948C432.872 20.0216 432.97 20.0751 433.077 20.1043C433.203 20.1383 433.331 20.1586 433.461 20.1647C433.615 20.1735 433.767 20.1935 433.918 20.2244V20.4643H429.286V20.2244C429.611 20.2018 429.93 20.129 430.233 20.0085C430.35 19.9711 430.451 19.8972 430.522 19.7978C430.594 19.6984 430.631 19.5787 430.629 19.4563V11.1999C430.633 11.1027 430.621 11.0055 430.594 10.9122C430.547 10.8227 430.476 10.7479 430.389 10.6957C430.246 10.6156 430.078 10.5237 429.886 10.4199C429.698 10.3182 429.506 10.226 429.309 10.1437V9.99979L432.453 8.87239H432.617L432.621 12.15Z" fill="#58595B"></path><path d="M385.12 20.4651V20.2208C385.316 20.2045 385.51 20.1846 385.706 20.1598C385.885 20.1389 386.061 20.0976 386.23 20.0367C386.375 19.9866 386.508 19.9079 386.622 19.8055C386.673 19.7593 386.714 19.7026 386.741 19.6393C386.768 19.576 386.782 19.5075 386.78 19.4385V11.0599C386.782 10.9449 386.77 10.83 386.744 10.718C386.709 10.606 386.636 10.5104 386.536 10.4489C386.368 10.3391 386.192 10.2413 386.011 10.1561C385.8 10.0551 385.584 9.96541 385.364 9.88729V9.74069L388.665 8.66536H388.811V19.5852C388.82 19.655 388.844 19.7222 388.879 19.783C388.915 19.8438 388.962 19.8969 389.018 19.9393C389.133 20.017 389.262 20.0709 389.398 20.0981C389.554 20.1325 389.713 20.1531 389.874 20.1598C390.042 20.1671 390.209 20.1875 390.374 20.2208V20.4651L385.12 20.4651Z" fill="#58595B"></path><path d="M388.6 6.23814C388.419 6.41404 388.19 6.53289 387.942 6.57996C387.694 6.62702 387.437 6.60023 387.205 6.5029C386.972 6.40556 386.772 6.24198 386.631 6.03244C386.491 5.82289 386.414 5.57661 386.412 5.32415C386.407 5.15665 386.437 4.98993 386.5 4.83471C386.563 4.67949 386.658 4.53921 386.779 4.42289C387.027 4.19391 387.352 4.06676 387.689 4.06676C388.027 4.06676 388.352 4.19391 388.6 4.42289C388.72 4.53927 388.815 4.67957 388.878 4.83477C388.942 4.98997 388.972 5.15666 388.967 5.32415C388.971 5.49343 388.941 5.66182 388.878 5.81898C388.815 5.97615 388.72 6.11878 388.6 6.23814" fill="#58595B"></path><path d="M420.379 12.3557C420.44 12.0667 420.53 11.7846 420.647 11.5135C420.806 11.1252 421.015 10.7595 421.269 10.4259C421.539 10.0675 421.86 9.75074 422.222 9.48588C422.577 9.2201 423.01 9.07836 423.454 9.08243C423.763 9.06774 424.071 9.11775 424.359 9.22923C424.647 9.3407 424.908 9.51119 425.127 9.72973C425.328 9.93411 425.487 10.1766 425.594 10.443C425.701 10.7095 425.753 10.9945 425.749 11.2815C425.758 11.4566 425.729 11.6317 425.663 11.7942C425.593 11.9266 425.507 12.0497 425.407 12.1607C425.227 12.2294 425.038 12.2706 424.845 12.2829C424.634 12.2993 424.406 12.3074 424.163 12.3072C423.787 12.3072 423.446 12.3112 423.137 12.3195C422.828 12.3274 422.53 12.3353 422.246 12.3438C421.961 12.3514 421.79 12.3557 421.497 12.3557L421.388 12.6889H428.172C428.14 12.0697 427.982 11.4634 427.708 10.9074C427.462 10.4213 427.117 9.99284 426.693 9.65018C426.259 9.30654 425.761 9.05336 425.227 8.9056C424.643 8.73966 424.039 8.6574 423.431 8.66127C422.688 8.652 421.954 8.82372 421.292 9.16161C420.665 9.48316 420.108 9.92773 419.656 10.4689C418.758 11.5557 418.262 12.9181 418.25 14.3276C418.245 15.1458 418.378 15.959 418.641 16.7336C418.883 17.4576 419.261 18.129 419.754 18.7119C420.231 19.2721 420.828 19.7186 421.5 20.0188C422.216 20.3339 422.991 20.4918 423.773 20.4818C424.399 20.4907 425.02 20.3658 425.594 20.1157C426.112 19.8897 426.588 19.5755 426.999 19.1872C427.376 18.8315 427.69 18.4145 427.928 17.954C428.132 17.5739 428.28 17.1664 428.368 16.744L428.172 16.6956C427.954 17.327 427.527 17.8654 426.963 18.2219C426.331 18.644 425.585 18.8618 424.825 18.8457C424.143 18.8597 423.466 18.7176 422.846 18.4303C422.292 18.1662 421.807 17.7771 421.429 17.2937C421.045 16.7966 420.755 16.2338 420.573 15.6328C420.376 14.9959 420.278 14.3328 420.28 13.6662C420.28 13.4871 420.288 13.3116 420.305 13.1412C420.321 12.9701 420.33 12.8192 420.33 12.6889L420.379 12.3557Z" fill="#58595B"></path><path d="M393.263 12.3547C393.324 12.0656 393.415 11.7834 393.532 11.5123C393.69 11.1241 393.899 10.7584 394.153 10.4248C394.423 10.0663 394.744 9.74955 395.106 9.48485C395.462 9.21893 395.895 9.07708 396.339 9.08108C396.648 9.06636 396.956 9.11635 397.244 9.22783C397.532 9.33931 397.793 9.50982 398.011 9.72838C398.213 9.93274 398.372 10.1752 398.478 10.4417C398.585 10.7081 398.638 10.9932 398.633 11.2803C398.643 11.4553 398.614 11.6304 398.548 11.7929C398.478 11.9252 398.392 12.0483 398.292 12.1596C398.112 12.228 397.922 12.2692 397.73 12.2816C397.519 12.298 397.291 12.3061 397.047 12.306C396.672 12.306 396.33 12.3101 396.021 12.3182C395.712 12.3262 395.415 12.3341 395.131 12.3426C394.846 12.3503 394.675 12.3546 394.382 12.3546L394.273 12.6879H401.056C401.024 12.0687 400.867 11.4624 400.593 10.9061C400.347 10.42 400.001 9.99147 399.578 9.64874C399.144 9.30528 398.645 9.05224 398.112 8.90455C397.528 8.73848 396.923 8.65619 396.316 8.66015C395.573 8.65089 394.839 8.82264 394.177 9.16057C393.549 9.48206 392.993 9.92661 392.54 10.4677C391.643 11.5548 391.147 12.9171 391.135 14.3264C391.13 15.1446 391.262 15.9579 391.526 16.7326C391.768 17.4565 392.145 18.1277 392.638 18.7105C393.116 19.2708 393.712 19.7174 394.385 20.0177C395.1 20.3326 395.876 20.4905 396.658 20.4806C397.284 20.4894 397.904 20.3645 398.478 20.1144C398.997 19.8886 399.472 19.5744 399.883 19.186C400.26 18.8303 400.574 18.4133 400.812 17.9527C401.016 17.5727 401.164 17.1653 401.252 16.7429L401.056 16.6942C400.839 17.3258 400.412 17.8643 399.847 18.2207C399.215 18.6428 398.469 18.8605 397.71 18.8444C397.027 18.8584 396.35 18.7164 395.731 18.4291C395.177 18.1649 394.692 17.7759 394.313 17.2926C393.93 16.7955 393.64 16.2326 393.457 15.6316C393.261 14.9947 393.162 14.3317 393.165 13.6652C393.165 13.4859 393.173 13.3104 393.19 13.14C393.206 12.9688 393.214 12.8179 393.214 12.6879L393.263 12.3547Z" fill="#58595B"></path><path d="M401.706 20.4651V20.1955C402.211 20.1893 402.713 20.1113 403.196 19.964C403.308 19.9235 403.404 19.8483 403.47 19.7493C403.536 19.6504 403.569 19.5329 403.563 19.414V5.3646C403.568 5.26533 403.555 5.16605 403.526 5.0709C403.479 4.97986 403.407 4.90365 403.319 4.85061C403.172 4.7697 402.951 4.64304 402.659 4.47259C402.423 4.33091 402.178 4.20423 401.926 4.0933V3.94696L405.422 2.79837H405.593V19.5363C405.583 19.6679 405.622 19.7984 405.703 19.903C405.792 19.9929 405.908 20.0528 406.033 20.0743C406.218 20.1109 406.407 20.1311 406.596 20.1348C406.824 20.143 407.092 20.1632 407.402 20.1955V20.4651L401.706 20.4651Z" fill="#58595B"></path><path d="M416.391 18.5116C416.148 18.9654 415.801 19.3549 415.378 19.6479C414.938 19.9487 414.445 20.1643 413.925 20.2836C413.361 20.4166 412.783 20.4823 412.204 20.4795C411.523 20.4832 410.845 20.4176 410.178 20.2836C409.572 20.1626 408.983 19.974 408.419 19.7215V16.495H408.6C408.741 16.9147 408.905 17.3268 409.09 17.7294C409.281 18.1537 409.519 18.5554 409.8 18.9269C410.073 19.2901 410.414 19.5974 410.804 19.8321C411.228 20.0764 411.711 20.1989 412.2 20.186C412.542 20.2033 412.883 20.1529 413.205 20.0375C413.526 19.9221 413.822 19.744 414.074 19.5137C414.539 19.0655 414.772 18.3771 414.772 17.4483C414.779 17.2175 414.741 16.9876 414.659 16.7717C414.577 16.5558 414.454 16.3581 414.296 16.1899C413.939 15.8357 413.482 15.6009 412.986 15.518C412.546 15.4361 412.122 15.3464 411.715 15.2489C411.343 15.1618 410.975 15.0556 410.614 14.9307C410.01 14.7304 409.483 14.346 409.109 13.8313C408.717 13.2832 408.516 12.6223 408.534 11.9491C408.527 11.4737 408.637 11.0039 408.853 10.5807C409.065 10.1753 409.357 9.81759 409.713 9.5298C410.083 9.23009 410.507 9.00211 410.961 8.85753C411.45 8.7 411.961 8.62158 412.475 8.62523C413.083 8.61723 413.689 8.67879 414.283 8.8087C414.789 8.92636 415.287 9.07718 415.773 9.2602L416.066 12.2914L415.871 12.3402C415.642 11.8515 415.414 11.3993 415.187 10.9838C414.978 10.5961 414.724 10.2349 414.429 9.90814C414.165 9.61601 413.846 9.37925 413.489 9.2116C413.109 9.04278 412.696 8.95943 412.28 8.96744C412 8.96765 411.723 9.01728 411.461 9.11404C411.199 9.2079 410.958 9.35327 410.753 9.5416C410.54 9.74212 410.37 9.983 410.252 10.2501C410.116 10.5621 410.049 10.8998 410.056 11.24C410.033 11.4812 410.067 11.7245 410.157 11.9498C410.246 12.1752 410.387 12.376 410.57 12.5359C410.956 12.8176 411.397 13.0172 411.863 13.1221C412.221 13.2042 412.612 13.2897 413.035 13.3793C413.458 13.4688 413.825 13.5542 414.134 13.6355C414.857 13.8095 415.509 14.2019 416.001 14.7595C416.516 15.3365 416.791 16.0886 416.77 16.8618C416.785 17.4349 416.654 18.0024 416.391 18.5116" fill="#58595B"></path><path d="M375.753 25.9525C375.754 26.1994 375.68 26.4409 375.543 26.6462C375.406 26.8516 375.211 27.0117 374.983 27.1062C374.755 27.2007 374.504 27.2255 374.261 27.1773C374.019 27.1292 373.797 27.0102 373.622 26.8356C373.447 26.661 373.329 26.4385 373.28 26.1963C373.232 25.9541 373.257 25.703 373.351 25.4748C373.446 25.2467 373.606 25.0517 373.811 24.9145C374.017 24.7773 374.258 24.7041 374.505 24.7041C374.836 24.7042 375.154 24.8358 375.388 25.0698C375.622 25.3039 375.753 25.6214 375.753 25.9525" fill="#58595B"></path><path d="M383.824 25.9525C383.824 26.1995 383.75 26.4409 383.613 26.6463C383.476 26.8517 383.281 27.0118 383.053 27.1064C382.825 27.201 382.574 27.2258 382.331 27.1776C382.089 27.1294 381.867 27.0105 381.692 26.8359C381.517 26.6612 381.398 26.4387 381.35 26.1965C381.302 25.9542 381.327 25.7031 381.421 25.4749C381.516 25.2467 381.676 25.0517 381.881 24.9145C382.087 24.7773 382.328 24.7041 382.575 24.7041C382.906 24.7042 383.224 24.8358 383.458 25.0698C383.692 25.3039 383.823 25.6214 383.824 25.9525" fill="#58595B"></path><path d="M391.893 25.9525C391.894 26.1995 391.82 26.4409 391.683 26.6463C391.546 26.8518 391.351 27.0119 391.123 27.1065C390.895 27.201 390.644 27.2258 390.401 27.1777C390.159 27.1295 389.937 27.0106 389.762 26.836C389.587 26.6614 389.468 26.4388 389.42 26.1966C389.372 25.9543 389.397 25.7032 389.491 25.475C389.586 25.2468 389.746 25.0518 389.951 24.9146C390.156 24.7773 390.398 24.7041 390.645 24.7041C390.976 24.7042 391.293 24.8357 391.528 25.0698C391.762 25.3039 391.893 25.6214 391.893 25.9525" fill="#58595B"></path><path d="M399.963 25.9525C399.963 26.1994 399.89 26.4408 399.753 26.6461C399.616 26.8515 399.421 27.0115 399.193 27.1061C398.965 27.2006 398.714 27.2253 398.471 27.1772C398.229 27.129 398.007 27.0101 397.832 26.8356C397.657 26.661 397.539 26.4385 397.49 26.1963C397.442 25.9541 397.467 25.7031 397.561 25.4749C397.656 25.2468 397.816 25.0518 398.021 24.9146C398.226 24.7774 398.468 24.7042 398.715 24.7041C399.046 24.7042 399.363 24.8357 399.597 25.0698C399.832 25.3039 399.963 25.6214 399.963 25.9525Z" fill="#58595B"></path><path d="M408.033 25.9525C408.033 26.1994 407.96 26.4409 407.823 26.6463C407.686 26.8516 407.491 27.0117 407.263 27.1063C407.034 27.2008 406.783 27.2256 406.541 27.1774C406.299 27.1293 406.076 27.0104 405.902 26.8357C405.727 26.6611 405.608 26.4386 405.56 26.1964C405.512 25.9541 405.536 25.7031 405.631 25.4749C405.726 25.2467 405.886 25.0517 406.091 24.9145C406.296 24.7773 406.538 24.7041 406.785 24.7041C407.116 24.7042 407.433 24.8358 407.667 25.0699C407.901 25.3039 408.033 25.6214 408.033 25.9525" fill="#58595B"></path><path d="M416.102 25.9525C416.103 26.1994 416.029 26.4408 415.892 26.6462C415.755 26.8516 415.56 27.0116 415.332 27.1062C415.104 27.2007 414.853 27.2254 414.61 27.1773C414.368 27.1291 414.146 27.0102 413.971 26.8356C413.796 26.6609 413.678 26.4384 413.629 26.1962C413.581 25.954 413.606 25.7029 413.7 25.4748C413.795 25.2466 413.955 25.0516 414.16 24.9145C414.366 24.7773 414.607 24.7041 414.854 24.7041C415.185 24.7042 415.503 24.8358 415.737 25.0699C415.971 25.304 416.102 25.6214 416.102 25.9525" fill="#58595B"></path><path d="M424.172 25.9525C424.172 26.1994 424.099 26.4408 423.962 26.6462C423.825 26.8515 423.63 27.0116 423.402 27.1061C423.173 27.2007 422.922 27.2254 422.68 27.1773C422.438 27.1291 422.216 27.0102 422.041 26.8356C421.866 26.661 421.747 26.4385 421.699 26.1963C421.651 25.9541 421.676 25.703 421.77 25.4749C421.865 25.2467 422.025 25.0517 422.23 24.9145C422.435 24.7773 422.677 24.7041 422.924 24.7041C423.255 24.7042 423.572 24.8358 423.806 25.0699C424.04 25.3039 424.172 25.6214 424.172 25.9525" fill="#58595B"></path><path d="M440.312 25.9525C440.312 26.1994 440.239 26.4408 440.101 26.6462C439.964 26.8515 439.769 27.0116 439.541 27.1061C439.313 27.2007 439.062 27.2254 438.82 27.1773C438.578 27.1292 438.355 27.0103 438.18 26.8357C438.006 26.6611 437.887 26.4387 437.839 26.1965C437.79 25.9543 437.815 25.7033 437.91 25.4751C438.004 25.247 438.164 25.0519 438.369 24.9147C438.575 24.7775 438.816 24.7042 439.063 24.7041C439.394 24.7041 439.712 24.8356 439.946 25.0697C440.18 25.3038 440.312 25.6213 440.312 25.9525" fill="#58595B"></path><path d="M432.242 25.9525C432.242 26.1994 432.169 26.4408 432.032 26.6461C431.894 26.8515 431.699 27.0115 431.471 27.106C431.243 27.2005 430.992 27.2253 430.75 27.1771C430.508 27.1289 430.285 27.01 430.111 26.8354C429.936 26.6608 429.817 26.4383 429.769 26.1961C429.721 25.9539 429.746 25.7029 429.84 25.4748C429.935 25.2466 430.095 25.0517 430.3 24.9145C430.505 24.7773 430.747 24.7041 430.994 24.7041C431.325 24.7042 431.642 24.8358 431.876 25.0699C432.11 25.304 432.242 25.6214 432.242 25.9525" fill="#58595B"></path><path d="M480.242 21.3967C482.611 21.3967 484.442 19.5655 484.442 16.8554V6.30761H487.005V23.3989H484.466V21.8118C483.881 22.4167 483.179 22.8955 482.402 23.2188C481.625 23.5422 480.791 23.7031 479.949 23.6918C476.287 23.6918 473.479 21.0305 473.479 17.0019V6.30761H476.043V16.8554C476.043 19.6144 477.849 21.3967 480.242 21.3967" fill="#58595B"></path><path d="M488.91 6.30762H491.376V12.5337C491.951 11.9447 492.639 11.4769 493.398 11.1582C494.157 10.8395 494.972 10.6762 495.795 10.6781C496.653 10.6733 497.503 10.838 498.297 11.1629C499.09 11.4877 499.812 11.9663 500.42 12.571C501.028 13.1757 501.51 13.8946 501.84 14.6864C502.169 15.4783 502.339 16.3274 502.339 17.1849C502.339 18.0425 502.169 18.8916 501.84 19.6835C501.51 20.4753 501.028 21.1942 500.42 21.7989C499.812 22.4036 499.09 22.8821 498.297 23.207C497.503 23.5319 496.653 23.6966 495.795 23.6918C494.968 23.6938 494.149 23.5306 493.386 23.212C492.623 22.8934 491.931 22.4256 491.352 21.8362V23.3988H488.91V6.30762ZM495.624 21.5188C496.48 21.5236 497.318 21.2743 498.032 20.8024C498.746 20.3304 499.304 19.6572 499.634 18.8679C499.965 18.0787 500.054 17.2089 499.89 16.369C499.726 15.5291 499.317 14.7567 498.713 14.1499C498.11 13.5431 497.34 13.129 496.501 12.9603C495.662 12.7916 494.792 12.8757 494.001 13.2021C493.209 13.5285 492.533 14.0824 492.057 14.7937C491.581 15.5049 491.327 16.3414 491.327 17.1972C491.325 17.7633 491.434 18.3244 491.649 18.8482C491.864 19.372 492.18 19.8482 492.579 20.2497C492.978 20.6511 493.453 20.9699 493.975 21.1876C494.498 21.4054 495.058 21.5179 495.624 21.5188" fill="#58595B"></path><path d="M509.712 10.7025C513.301 10.7025 515.938 13.4615 515.938 17.1727V17.9785H505.806C505.958 18.9641 506.457 19.8628 507.214 20.5121C507.971 21.1615 508.935 21.5186 509.932 21.5188C510.635 21.5315 511.33 21.3711 511.955 21.0517C512.581 20.7323 513.119 20.2639 513.521 19.6876L515.304 21.0061C514.686 21.8466 513.876 22.5268 512.941 22.9899C512.007 23.4529 510.975 23.6852 509.932 23.6673C506.196 23.6673 503.315 20.8839 503.315 17.1727C503.306 16.3267 503.465 15.4874 503.783 14.7031C504.1 13.9189 504.57 13.2054 505.165 12.6038C505.76 12.0021 506.468 11.5243 507.248 11.198C508.029 10.8717 508.866 10.7033 509.712 10.7025L509.712 10.7025ZM505.855 16.0252H513.448C513.285 15.1385 512.818 14.3365 512.127 13.7572C511.436 13.1778 510.565 12.8574 509.663 12.8511C507.832 12.8511 506.294 14.1208 505.855 16.0252" fill="#58595B"></path><path d="M522.555 13.1441C520.944 13.1441 519.772 14.3893 519.772 16.3182V23.3988H517.306V10.9466H519.747V12.4849C520.051 11.9698 520.488 11.5461 521.012 11.2582C521.536 10.9703 522.128 10.829 522.726 10.849H523.58V13.1441H522.555Z" fill="#58595B"></path></svg>