<svg xmlns="http://www.w3.org/2000/svg" id="Layer_1" data-name="Layer 1" viewBox="0 0 135 135"><defs><style>.cls-1{fill:#2c50ff;}.cls-2{fill:#bbcaff;}</style></defs><path class="cls-1" d="M56.73,33.41H77.57a2.86,2.86,0,0,1,2.72,2L99.5,99.34a2.85,2.85,0,0,1-.8,2.91l-29.61,27a2.82,2.82,0,0,1-3.81,0l-29.61-27a2.83,2.83,0,0,1-.87-2.91L54,35.43A2.85,2.85,0,0,1,56.73,33.41Z"></path><path class="cls-1" d="M84.15,9.65,79.22,25.91a2.83,2.83,0,0,1-2.75,2H55.64a2.83,2.83,0,0,1-2.72-2L48,9.65a2.84,2.84,0,0,1,1.91-3.53A3.12,3.12,0,0,1,50.72,6H81.43a2.82,2.82,0,0,1,2.83,2.84A3.1,3.1,0,0,1,84.15,9.65Z"></path><path class="cls-2" d="M46.49,36,39.91,62.34a1.65,1.65,0,0,1-.7,1l-20.33,13a1.63,1.63,0,0,1-2.25-.5,1.67,1.67,0,0,1-.23-1.21L22,47.29a1.65,1.65,0,0,1,.8-1.09L44.09,34.14A1.64,1.64,0,0,1,46.49,36Z"></path></svg>